<svg width="100" height="100" viewBox="0 0 100 100" fill="none" xmlns="http://www.w3.org/2000/svg">
<g clip-path="url(#clip0_9_859)">
<path fill-rule="evenodd" clip-rule="evenodd" d="M59.9398 31.5306C59.9398 31.5306 58.3289 13.0454 50.3087 13.3063H24.1496L41.4184 31.5306C41.4184 31.5306 28.7759 18.3046 23.6257 23.8633L6 41.2006H31.7873C31.7873 41.2006 13.3766 42.818 13.6364 50.8706V77.1354L31.7873 59.7968C31.7873 59.7968 18.6136 72.4898 24.1496 77.6614L41.4184 95V69.4668C41.4184 69.4668 43.0293 87.9519 51.0495 87.691H69.5709L59.9398 69.4668C59.9398 69.4668 72.5802 82.6929 77.7312 77.1354L95 59.7968H69.5709C69.5709 59.7968 87.9816 58.1794 87.7218 50.1267V31.5306L69.5709 41.2006C69.5709 41.2006 82.7428 28.5084 77.2073 23.3373L59.9398 6V31.5306ZM51 62C44.3726 62 39 56.6274 39 50C39 43.3726 44.3726 38 51 38C57.6274 38 63 43.3726 63 50C63 56.6274 57.6274 62 51 62Z" fill="url(#paint0_linear_9_859)"/>
<path d="M50.3087 13.3063L50.39 15.805L50.3493 15.8063H50.3087V13.3063ZM59.9398 31.5306H62.4398L57.4492 31.7476L59.9398 31.5306ZM24.1496 13.3063L22.3349 15.0259L18.3365 10.8063H24.1496V13.3063ZM41.4184 31.5306L43.2331 29.811L39.6113 33.258L41.4184 31.5306ZM23.6257 23.8633L25.4596 25.5624L25.4202 25.6049L25.3788 25.6456L23.6257 23.8633ZM6 41.2006V43.7006H-0.106654L4.24688 39.4183L6 41.2006ZM31.7873 41.2006V38.7006L32.0061 43.691L31.7873 41.2006ZM13.6364 50.8706L16.1351 50.79L16.1364 50.8303V50.8706H13.6364ZM13.6364 77.1354L15.3633 78.9431L11.1364 82.9808V77.1354H13.6364ZM31.7873 59.7968L30.0605 57.989L33.522 61.5971L31.7873 59.7968ZM24.1496 77.6614L25.8562 75.8345L25.8891 75.8653L25.9209 75.8972L24.1496 77.6614ZM41.4184 95H43.9184V101.053L39.6471 96.7642L41.4184 95ZM41.4184 69.4668H38.9184L43.909 69.2497L41.4184 69.4668ZM51.0495 87.691L50.9683 85.1923L51.0089 85.191H51.0495V87.691ZM69.5709 87.691L71.7812 86.5229L73.7197 90.191H69.5709V87.691ZM59.9398 69.4668L57.7295 70.6349L61.7471 67.7395L59.9398 69.4668ZM77.7312 77.1354L75.8976 75.4359L75.9281 75.403L75.9598 75.3712L77.7312 77.1354ZM95 59.7968V57.2968H101.018L96.7713 61.561L95 59.7968ZM69.5709 59.7968V62.2968L69.3521 57.3063L69.5709 59.7968ZM87.7218 50.1267L85.2231 50.2074L85.2218 50.1671V50.1267H87.7218ZM87.7218 31.5306L86.5463 29.3241L90.2218 27.366V31.5306H87.7218ZM69.5709 41.2006L70.7464 43.407L67.8362 39.4003L69.5709 41.2006ZM77.2073 23.3373L75.5007 25.1642L75.4678 25.1334L75.436 25.1015L77.2073 23.3373ZM59.9398 6H57.4398V-0.0527858L61.7111 4.2358L59.9398 6ZM50.2274 10.8076C53.3485 10.7061 55.6414 12.4803 57.1933 14.5388C58.7281 16.5746 59.785 19.1813 60.5222 21.5886C61.2702 24.031 61.7443 26.4555 62.0314 28.2518C62.1757 29.1546 62.2745 29.9097 62.3376 30.4432C62.3692 30.7101 62.3919 30.9222 62.4069 31.0702C62.4144 31.1442 62.42 31.2022 62.4239 31.2432C62.4258 31.2636 62.4273 31.2798 62.4284 31.2916C62.4289 31.2975 62.4293 31.3023 62.4297 31.3059C62.4298 31.3078 62.43 31.3093 62.4301 31.3106C62.4301 31.3112 62.4302 31.3119 62.4302 31.3123C62.4303 31.3129 62.4303 31.3135 59.9398 31.5306C57.4492 31.7476 57.4493 31.7481 57.4493 31.7484C57.4493 31.7485 57.4493 31.7488 57.4493 31.7489C57.4493 31.749 57.4493 31.7489 57.4493 31.7485C57.4492 31.7476 57.449 31.7457 57.4488 31.7427C57.4482 31.7367 57.4473 31.7264 57.4459 31.7119C57.4432 31.6829 57.4388 31.6372 57.4325 31.5759C57.4201 31.4532 57.4003 31.2684 57.3722 31.0304C57.3159 30.5539 57.2261 29.867 57.0941 29.0409C56.8285 27.3794 56.3987 25.1989 55.7414 23.0527C55.0734 20.8713 54.2237 18.9056 53.2008 17.5488C52.195 16.2147 51.279 15.7761 50.39 15.805L50.2274 10.8076ZM24.1496 10.8063H50.3087V15.8063H24.1496V10.8063ZM39.6037 33.2501L22.3349 15.0259L25.9643 11.5867L43.2331 29.811L39.6037 33.2501ZM21.7919 22.1642C23.9193 19.8679 26.7528 19.7071 29.162 20.2852C31.5139 20.8497 33.8761 22.1838 35.8683 23.5513C37.8981 24.9448 39.7322 26.5057 41.0462 27.7028C41.707 28.3048 42.245 28.8228 42.6205 29.193C42.8083 29.3782 42.956 29.5269 43.0584 29.6312C43.1096 29.6833 43.1496 29.7243 43.1776 29.7533C43.1917 29.7678 43.2027 29.7793 43.2108 29.7876C43.2148 29.7918 43.218 29.7952 43.2205 29.7978C43.2217 29.799 43.2228 29.8001 43.2236 29.801C43.2241 29.8015 43.2246 29.802 43.2248 29.8022C43.2252 29.8027 43.2256 29.8031 41.4184 31.5306C39.6113 33.258 39.6116 33.2583 39.6118 33.2586C39.6118 33.2586 39.612 33.2588 39.6121 33.2589C39.6122 33.259 39.6121 33.2589 39.6118 33.2586C39.6112 33.2579 39.6098 33.2565 39.6078 33.2544C39.6036 33.25 39.5964 33.2426 39.5864 33.2323C39.5663 33.2115 39.5346 33.179 39.492 33.1356C39.4067 33.0488 39.2777 32.9188 39.1098 32.7533C38.7738 32.4219 38.2838 31.95 37.6789 31.3989C36.4615 30.2898 34.813 28.8917 33.0385 27.6735C31.2262 26.4294 29.4622 25.4992 27.9952 25.1472C26.5854 24.8089 25.9072 25.0793 25.4596 25.5624L21.7919 22.1642ZM4.24688 39.4183L21.8726 22.081L25.3788 25.6456L7.75312 42.9829L4.24688 39.4183ZM31.7873 43.7006H6V38.7006H31.7873V43.7006ZM11.1377 50.9512C11.0371 47.8315 12.7963 45.533 14.8502 43.9721C16.8794 42.4298 19.4778 41.3678 21.877 40.6271C24.3111 39.8756 26.7272 39.3993 28.517 39.1109C29.4167 38.966 30.1692 38.8668 30.7008 38.8034C30.9669 38.7717 31.1782 38.7488 31.3258 38.7337C31.3996 38.7262 31.4575 38.7205 31.4983 38.7166C31.5187 38.7147 31.5349 38.7132 31.5466 38.7121C31.5525 38.7116 31.5573 38.7112 31.5609 38.7108C31.5628 38.7107 31.5643 38.7105 31.5656 38.7104C31.5662 38.7104 31.567 38.7103 31.5673 38.7103C31.568 38.7102 31.5686 38.7102 31.7873 41.2006C32.0061 43.691 32.0066 43.6909 32.007 43.6909C32.007 43.6909 32.0073 43.6909 32.0074 43.6909C32.0076 43.6909 32.0074 43.6909 32.007 43.6909C32.0062 43.691 32.0043 43.6911 32.0014 43.6914C31.9954 43.692 31.9852 43.6929 31.9708 43.6943C31.942 43.697 31.8965 43.7014 31.8355 43.7077C31.7135 43.7202 31.5296 43.74 31.2927 43.7682C30.8185 43.8247 30.1347 43.9148 29.3124 44.0473C27.6584 44.3138 25.488 44.7451 23.3519 45.4046C21.1809 46.0748 19.2254 46.927 17.8756 47.9528C16.5505 48.9599 16.1059 49.8834 16.1351 50.79L11.1377 50.9512ZM11.1364 77.1354V50.8706H16.1364V77.1354H11.1364ZM33.5142 61.6045L15.3633 78.9431L11.9096 75.3276L30.0605 57.989L33.5142 61.6045ZM22.443 79.4882C20.1592 77.3548 20.0015 74.5196 20.5755 72.1091C21.1368 69.7521 22.4639 67.3827 23.8262 65.3824C25.2138 63.3449 26.7684 61.5038 27.9607 60.1845C28.5603 59.5211 29.0763 58.981 29.445 58.604C29.6295 58.4154 29.7776 58.2672 29.8815 58.1644C29.9334 58.1129 29.9743 58.0728 30.0031 58.0446C30.0176 58.0305 30.029 58.0194 30.0373 58.0114C30.0415 58.0073 30.0448 58.0041 30.0474 58.0016C30.0487 58.0003 30.0498 57.9993 30.0507 57.9984C30.0511 57.998 30.0516 57.9975 30.0519 57.9973C30.0523 57.9968 30.0527 57.9964 31.7873 59.7968C33.522 61.5971 33.5223 61.5968 33.5225 61.5965C33.5226 61.5965 33.5228 61.5963 33.5228 61.5962C33.5229 61.5962 33.5228 61.5963 33.5225 61.5966C33.5219 61.5971 33.5205 61.5985 33.5183 61.6006C33.514 61.6048 33.5066 61.6119 33.4963 61.622C33.4757 61.6422 33.4432 61.674 33.4 61.7168C33.3136 61.8024 33.1841 61.9319 33.0192 62.1005C32.6891 62.4379 32.2191 62.9298 31.6702 63.5372C30.5654 64.7595 29.1725 66.4148 27.9588 68.197C26.7196 70.0165 25.7913 71.79 25.4395 73.2674C25.1004 74.6914 25.372 75.3822 25.8562 75.8345L22.443 79.4882ZM39.6471 96.7642L22.3783 79.4256L25.9209 75.8972L43.1898 93.2358L39.6471 96.7642ZM43.9184 69.4668V95H38.9184V69.4668H43.9184ZM51.1308 90.1897C48.0097 90.2912 45.7168 88.517 44.1649 86.4585C42.6301 84.4227 41.5732 81.8161 40.836 79.4088C40.088 76.9663 39.6139 74.5418 39.3268 72.7456C39.1825 71.8427 39.0837 71.0876 39.0206 70.5541C38.9891 70.2872 38.9663 70.0751 38.9513 69.9271C38.9438 69.8531 38.9382 69.7951 38.9343 69.7542C38.9324 69.7337 38.9309 69.7175 38.9298 69.7057C38.9293 69.6998 38.9289 69.6951 38.9285 69.6914C38.9284 69.6896 38.9282 69.688 38.9281 69.6868C38.9281 69.6861 38.928 69.6854 38.928 69.6851C38.9279 69.6844 38.9279 69.6838 41.4184 69.4668C43.909 69.2497 43.909 69.2493 43.9089 69.2489C43.9089 69.2489 43.9089 69.2485 43.9089 69.2485C43.9089 69.2483 43.9089 69.2485 43.9089 69.2489C43.909 69.2497 43.9092 69.2516 43.9094 69.2546C43.91 69.2606 43.9109 69.2709 43.9123 69.2854C43.915 69.3144 43.9194 69.3602 43.9257 69.4215C43.9381 69.5441 43.9579 69.729 43.986 69.9669C44.0424 70.4434 44.1321 71.1304 44.2641 71.9564C44.5297 73.618 44.9596 75.7985 45.6168 77.9447C46.2849 80.1261 47.1345 82.0918 48.1574 83.4485C49.1632 84.7826 50.0792 85.2213 50.9683 85.1923L51.1308 90.1897ZM69.5709 90.191H51.0495V85.191H69.5709V90.191ZM62.1501 68.2987L71.7812 86.5229L67.3605 88.8591L57.7295 70.6349L62.1501 68.2987ZM79.5647 78.8348C77.437 81.1305 74.6036 81.291 72.1946 80.7127C69.8427 80.148 67.4807 78.8138 65.4888 77.4461C63.4591 76.0525 61.6253 74.4916 60.3115 73.2944C59.6508 72.6924 59.1129 72.1744 58.7375 71.8042C58.5497 71.6189 58.4021 71.4702 58.2996 71.366C58.2484 71.3139 58.2085 71.2728 58.1804 71.2438C58.1664 71.2294 58.1553 71.2179 58.1473 71.2095C58.1433 71.2054 58.14 71.202 58.1376 71.1994C58.1363 71.1981 58.1353 71.197 58.1344 71.1961C58.134 71.1957 58.1335 71.1952 58.1333 71.1949C58.1328 71.1945 58.1324 71.1941 59.9398 69.4668C61.7471 67.7395 61.7468 67.7392 61.7466 67.7389C61.7465 67.7389 61.7463 67.7387 61.7463 67.7386C61.7462 67.7385 61.7463 67.7386 61.7466 67.7389C61.7472 67.7396 61.7485 67.7409 61.7506 67.7431C61.7548 67.7474 61.7619 67.7549 61.772 67.7652C61.792 67.786 61.8237 67.8185 61.8663 67.8619C61.9516 67.9487 62.0806 68.0787 62.2484 68.2442C62.5845 68.5756 63.0743 69.0475 63.6791 69.5986C64.8964 70.7077 66.5446 72.1059 68.3189 73.3242C70.131 74.5684 71.8949 75.4986 73.3618 75.8508C74.7716 76.1893 75.4499 75.919 75.8976 75.4359L79.5647 78.8348ZM96.7713 61.561L79.5025 78.8996L75.9598 75.3712L93.2287 58.0326L96.7713 61.561ZM69.5709 57.2968H95V62.2968H69.5709V57.2968ZM90.2205 50.0461C90.3211 53.1658 88.5619 55.4643 86.5081 57.0253C84.4788 58.5675 81.8804 59.6295 79.4812 60.3702C77.0471 61.1217 74.631 61.598 72.8412 61.8864C71.9415 62.0313 71.189 62.1306 70.6574 62.194C70.3913 62.2257 70.18 62.2485 70.0324 62.2636C69.9586 62.2712 69.9008 62.2768 69.8599 62.2807C69.8395 62.2826 69.8234 62.2841 69.8116 62.2852C69.8057 62.2857 69.8009 62.2862 69.7973 62.2865C69.7954 62.2867 69.7939 62.2868 69.7926 62.2869C69.792 62.287 69.7912 62.287 69.7909 62.2871C69.7903 62.2871 69.7897 62.2872 69.5709 59.7968C69.3521 57.3063 69.3516 57.3064 69.3512 57.3064C69.3512 57.3064 69.3509 57.3065 69.3508 57.3065C69.3507 57.3065 69.3508 57.3065 69.3512 57.3064C69.352 57.3064 69.3539 57.3062 69.3568 57.3059C69.3628 57.3054 69.373 57.3044 69.3874 57.3031C69.4162 57.3003 69.4617 57.2959 69.5227 57.2897C69.6447 57.2771 69.8286 57.2573 70.0655 57.2291C70.5397 57.1726 71.2235 57.0825 72.0458 56.9501C73.6998 56.6835 75.8702 56.2522 78.0063 55.5927C80.1773 54.9225 82.1329 54.0703 83.4826 53.0445C84.8077 52.0374 85.2523 51.114 85.2231 50.2074L90.2205 50.0461ZM90.2218 31.5306V50.1267H85.2218V31.5306H90.2218ZM68.3954 38.9942L86.5463 29.3241L88.8973 33.737L70.7464 43.407L68.3954 38.9942ZM78.9139 21.5104C81.1976 23.6438 81.3553 26.4787 80.7814 28.889C80.2203 31.2459 78.8933 33.6152 77.5313 35.6153C76.1438 37.6527 74.5895 39.4937 73.3973 40.8129C72.7978 41.4762 72.2819 42.0164 71.9132 42.3933C71.7287 42.5819 71.5806 42.7301 71.4768 42.8329C71.4249 42.8843 71.384 42.9245 71.3551 42.9526C71.3407 42.9667 71.3293 42.9778 71.321 42.9859C71.3168 42.9899 71.3134 42.9932 71.3109 42.9957C71.3096 42.9969 71.3085 42.998 71.3076 42.9988C71.3072 42.9993 71.3066 42.9998 71.3064 43C71.306 43.0004 71.3055 43.0008 69.5709 41.2006C67.8362 39.4003 67.8359 39.4006 67.8356 39.4009C67.8356 39.4009 67.8354 39.4011 67.8353 39.4011C67.8353 39.4012 67.8354 39.4011 67.8357 39.4008C67.8363 39.4002 67.8377 39.3989 67.8398 39.3968C67.8441 39.3926 67.8515 39.3854 67.8618 39.3754C67.8825 39.3552 67.9149 39.3234 67.9581 39.2806C68.0445 39.195 68.174 39.0655 68.3389 38.8969C68.6689 38.5596 69.1389 38.0677 69.6877 37.4604C70.7923 36.2382 72.185 34.583 73.3986 32.8009C74.6375 30.9816 75.5657 29.2082 75.9174 27.731C76.2564 26.3071 75.9848 25.6164 75.5007 25.1642L78.9139 21.5104ZM61.7111 4.2358L78.9786 21.5731L75.436 25.1015L58.1684 7.7642L61.7111 4.2358ZM57.4398 31.5306V6H62.4398V31.5306H57.4398ZM41.5 50C41.5 55.2467 45.7533 59.5 51 59.5V64.5C42.9919 64.5 36.5 58.0081 36.5 50H41.5ZM51 40.5C45.7533 40.5 41.5 44.7533 41.5 50H36.5C36.5 41.9919 42.9919 35.5 51 35.5V40.5ZM60.5 50C60.5 44.7533 56.2467 40.5 51 40.5V35.5C59.0081 35.5 65.5 41.9919 65.5 50H60.5ZM51 59.5C56.2467 59.5 60.5 55.2467 60.5 50H65.5C65.5 58.0081 59.0081 64.5 51 64.5V59.5Z" fill="black"/>
</g>
<defs>
<linearGradient id="paint0_linear_9_859" x1="50.5" y1="18" x2="50.5" y2="84" gradientUnits="userSpaceOnUse">
<stop stop-color="#4847DF"/>
<stop offset="0.471246" stop-color="#5036B2"/>
<stop offset="1" stop-color="#48297F"/>
</linearGradient>
<clipPath id="clip0_9_859">
<rect width="100" height="100" fill="white"/>
</clipPath>
</defs>
</svg>
