<svg width="100" height="100" viewBox="0 0 100 100" fill="none" xmlns="http://www.w3.org/2000/svg">
<path fill-rule="evenodd" clip-rule="evenodd" d="M39.3026 60.7271C35.3026 72.7271 39.4693 80.0604 42.3026 81.7271C43.3026 82.3938 44.8026 83.2271 51.8026 83.2271C58.8026 83.2271 64.3026 78.2271 63.3026 70.2271C62.5264 64.0178 61.3026 60.7271 54.3026 54.2271C48.3026 48.2271 43.8026 35.7424 43.8026 34.7424C31.8026 34.7424 29.3026 8.00001 49.8026 8C69.3026 7.99999 67.3026 34.7424 54.3026 34.7424C54.3026 37.9425 56.8026 43.7271 61.8026 48.7271C66.8026 53.7271 70.4928 59.7358 72.3026 64.2271C75.3026 77.7271 70.1556 83.2271 67.8026 85.7271C64.5085 89.2271 58.8026 94.2271 43.8026 92.2271C28.8026 90.2271 23.4933 70.8228 29.3026 58.9695C35.3026 46.7271 42.2411 51.9116 39.3026 60.7271ZM49.8026 26.7424C52.564 26.7424 55.3026 25.2424 55.3026 21.2424C55.3026 18.2424 52.564 16.2424 49.8026 16.2424C45.8026 16.2424 43.8026 18.7571 43.8026 21.2424C43.3026 25.7424 47.0411 26.7424 49.8026 26.7424Z" fill="url(#paint0_linear_6_809)"/>
<path d="M42.3026 81.7271L43.6893 79.647L43.6308 79.608L43.5701 79.5723L42.3026 81.7271ZM39.3026 60.7271L36.9309 59.9365L39.3026 60.7271ZM54.3026 54.2271L52.5348 55.9949L52.5676 56.0276L52.6015 56.0591L54.3026 54.2271ZM43.8026 34.7424H46.3026V32.2424L43.8026 32.2424L43.8026 34.7424ZM49.8026 8L49.8026 10.5L49.8026 8ZM54.3026 34.7424V32.2424H51.8026V34.7424H54.3026ZM67.8026 85.7271L65.9821 84.0137L65.9821 84.0137L67.8026 85.7271ZM29.3026 58.9695L31.5475 60.0697L31.5475 60.0697L29.3026 58.9695ZM43.8026 21.2424L46.2873 21.5184L46.3026 21.3808V21.2424H43.8026ZM72.3026 64.2271L74.7431 63.6848L74.6984 63.4837L74.6214 63.2927L72.3026 64.2271ZM43.5701 79.5723C42.9122 79.1852 41.4563 77.6224 40.6638 74.4891C39.8984 71.4633 39.8072 67.1189 41.6743 61.5177L36.9309 59.9365C34.798 66.3354 34.7901 71.6576 35.8164 75.7152C36.8155 79.6652 38.8597 82.6023 41.035 83.8819L43.5701 79.5723ZM51.8026 80.7271C48.3746 80.7271 46.4486 80.5206 45.3214 80.2815C44.3071 80.0664 43.9728 79.836 43.6893 79.647L40.9158 83.8072C41.6324 84.2849 42.5481 84.8045 44.2838 85.1727C45.9066 85.5169 48.2306 85.7271 51.8026 85.7271V80.7271ZM41.3026 34.7424C41.3026 35.1228 41.386 35.4823 41.4197 35.627C41.4702 35.844 41.5373 36.0865 41.6133 36.3396C41.7665 36.8498 41.9831 37.4923 42.2526 38.2264C42.7927 39.698 43.5705 41.6068 44.5393 43.6717C46.4468 47.7371 49.2199 52.68 52.5348 55.9949L56.0704 52.4593C53.3853 49.7742 50.9084 45.4747 49.0659 41.5478C48.1597 39.6165 47.4375 37.8416 46.9464 36.5036C46.7002 35.8328 46.5184 35.289 46.4021 34.9016C46.3433 34.7059 46.3078 34.5718 46.2895 34.4931C46.2543 34.3422 46.3026 34.4869 46.3026 34.7424H41.3026ZM49.8026 5.5C44.098 5.5 39.7365 7.37959 36.745 10.4272C33.7907 13.4369 32.3708 17.3825 32.1204 21.2079C31.8712 25.0159 32.7658 28.9008 34.688 31.9097C36.6311 34.9515 39.7515 37.2424 43.8026 37.2424L43.8026 32.2424C41.8537 32.2424 40.1616 31.1905 38.9016 29.218C37.6206 27.2127 36.9214 24.412 37.1098 21.5344C37.2969 18.6743 38.3457 15.9342 40.3133 13.9298C42.2436 11.9632 45.2571 10.5 49.8026 10.5L49.8026 5.5ZM54.3026 37.2424C58.5226 37.2424 61.8016 35.0348 63.891 31.9731C65.9475 28.9597 66.9155 25.0646 66.7374 21.2544C66.5586 17.431 65.2142 13.4858 62.3838 10.4682C59.5108 7.40518 55.2936 5.5 49.8026 5.5L49.8026 10.5C54.0615 10.5 56.9068 11.9376 58.737 13.8888C60.6097 15.8854 61.609 18.6258 61.7428 21.4879C61.8772 24.3633 61.1265 27.1539 59.7611 29.1547C58.4286 31.1072 56.5826 32.2424 54.3026 32.2424V37.2424ZM63.5704 46.9593C61.2586 44.6475 59.5395 42.1674 58.4084 39.9313C57.2502 37.6416 56.8026 35.7973 56.8026 34.7424H51.8026C51.8026 36.8875 52.605 39.5356 53.9468 42.1882C55.3157 44.8945 57.3467 47.8067 60.0349 50.4949L63.5704 46.9593ZM43.4722 94.7052C51.2852 95.7469 56.9023 94.9941 61.0949 93.371C65.3073 91.7403 67.8607 89.3131 69.6231 87.4405L65.9821 84.0137C64.4504 85.6412 62.5038 87.464 59.2898 88.7082C56.0559 89.9601 51.32 90.7073 44.133 89.749L43.4722 94.7052ZM27.0577 57.8693C23.8127 64.4903 23.7217 73.029 26.4092 80.1735C29.1151 87.367 34.8205 93.5516 43.4722 94.7052L44.133 89.749C37.7846 88.9026 33.3354 84.3851 31.089 78.4131C28.8242 72.3921 28.9831 65.302 31.5475 60.0697L27.0577 57.8693ZM41.6743 61.5177C42.5182 58.9859 42.7122 56.5471 42.2673 54.4847C41.8306 52.4602 40.6802 50.4899 38.6026 49.6384C36.4567 48.7589 34.1856 49.4177 32.2994 50.8473C30.4259 52.2674 28.6531 54.6141 27.0577 57.8693L31.5475 60.0697C32.9521 57.2037 34.2966 55.6075 35.3197 54.832C35.8208 54.4522 36.1879 54.3117 36.4027 54.2656C36.5995 54.2234 36.6816 54.2547 36.7065 54.2649C36.7461 54.2811 37.1544 54.4947 37.3797 55.539C37.5969 56.5456 37.5562 58.0606 36.9309 59.9365L41.6743 61.5177ZM52.8026 21.2424C52.8026 22.6229 52.3587 23.2564 51.9694 23.5872C51.5107 23.9769 50.7681 24.2424 49.8026 24.2424V29.2424C51.5985 29.2424 53.6059 28.7578 55.2069 27.3975C56.8772 25.9783 57.8026 23.8618 57.8026 21.2424H52.8026ZM49.8026 18.7424C51.5807 18.7424 52.8026 19.9895 52.8026 21.2424H57.8026C57.8026 16.4952 53.5473 13.7424 49.8026 13.7424V18.7424ZM46.3026 21.2424C46.3026 20.673 46.5295 20.0879 47.0142 19.6326C47.4847 19.1906 48.3419 18.7424 49.8026 18.7424V13.7424C47.2633 13.7424 45.1205 14.5515 43.591 15.9882C42.0757 17.4115 41.3026 19.3264 41.3026 21.2424H46.3026ZM49.8026 24.2424C48.6291 24.2424 47.5869 24.014 46.9674 23.6005C46.6995 23.4217 46.5319 23.2242 46.4249 22.9838C46.3145 22.7357 46.2016 22.2894 46.2873 21.5184L41.3179 20.9663C41.1536 22.4453 41.3205 23.8115 41.8568 25.0166C42.3965 26.2293 43.2423 27.1256 44.1917 27.7592C46.0068 28.9708 48.2146 29.2424 49.8026 29.2424V24.2424ZM52.6015 56.0591C56.0227 59.2359 57.8424 61.4593 58.9276 63.5068C59.993 65.5171 60.4466 67.535 60.8219 70.5372L65.7833 69.917C65.3824 66.7099 64.836 63.9778 63.3455 61.1654C61.8747 58.3903 59.5825 55.7183 56.0037 52.3951L52.6015 56.0591ZM60.8219 70.5372C61.2392 73.8757 60.2951 76.3587 58.7351 78.0106C57.1463 79.6928 54.7138 80.7271 51.8026 80.7271V85.7271C55.8914 85.7271 59.7089 84.2614 62.3701 81.4437C65.0601 78.5955 66.366 74.5785 65.7833 69.917L60.8219 70.5372ZM69.6231 87.4405C70.8484 86.1387 73.0265 83.8271 74.4142 79.9433C75.804 76.0537 76.3277 70.8155 74.7431 63.6848L69.8622 64.7694C71.2775 71.1387 70.7277 75.4006 69.7057 78.2609C68.6817 81.1271 67.1098 82.8156 65.9821 84.0137L69.6231 87.4405ZM74.6214 63.2927C72.6872 58.4926 68.8108 52.1997 63.5704 46.9593L60.0349 50.4949C64.7945 55.2545 68.2984 60.979 69.9838 65.1615L74.6214 63.2927Z" fill="black"/>
<defs>
<linearGradient id="paint0_linear_6_809" x1="50" y1="9" x2="51" y2="72" gradientUnits="userSpaceOnUse">
<stop stop-color="#D6D8D6" stop-opacity="0.41"/>
<stop offset="1" stop-color="#7D7E7D"/>
</linearGradient>
</defs>
</svg>
