<svg width="100" height="100" viewBox="0 0 100 100" fill="none" xmlns="http://www.w3.org/2000/svg">
<path fill-rule="evenodd" clip-rule="evenodd" d="M48.7327 23.8712C17.2327 23.8712 -2.7673 70.3712 29.2327 83.8712C50.2327 92.7305 86.5 76.5 88 51.5C83 57 72.2327 66.3712 69.7327 66.8712C77.5 60 88.0453 40.9966 81.7327 28.3712C77.0883 19.0823 70.2867 15.8333 67.7399 14.6167C67.545 14.5235 67.3749 14.4423 67.2327 14.3712C70.7327 19.8712 75.2327 32.3712 75.2327 34.3712C71.7327 18.3712 57.7327 12.3712 45.2327 14.3712C23.2358 17.8907 15.2326 34.3712 15.2326 34.3712C15.2326 34.3712 39.2327 22.8712 48.7327 23.8712ZM34.4886 62.8192C38.2172 66.8415 45.5372 66.1184 50.8382 61.2044C56.1393 56.2903 57.4141 49.046 53.6855 45.0238C49.9569 41.0016 42.6369 41.7246 37.3358 46.6386C32.0348 51.5527 30.76 58.797 34.4886 62.8192Z" fill="url(#paint0_linear_6_548)"/>
<path d="M29.2327 83.8712L28.261 86.1746L28.261 86.1746L29.2327 83.8712ZM48.7327 23.8712V26.3712L48.9944 21.3849L48.7327 23.8712ZM88 51.5L90.4955 51.6497L90.9202 44.5712L86.1501 49.8183L88 51.5ZM69.7327 66.8712L68.0762 64.9987L61.1334 71.1406L70.223 69.3226L69.7327 66.8712ZM81.7327 28.3712L83.9687 27.2532L83.9687 27.2532L81.7327 28.3712ZM67.7399 14.6167L66.6623 16.8725L66.6623 16.8725L67.7399 14.6167ZM67.2327 14.3712L68.3507 12.1351L60.2778 8.09862L65.1235 15.7134L67.2327 14.3712ZM75.2327 34.3712L72.7904 34.9054L77.7327 34.3712H75.2327ZM45.2327 14.3712L44.8377 11.9026L45.2327 14.3712ZM15.2326 34.3712L12.9838 33.2791L9.85618 39.7196L16.3129 36.6257L15.2326 34.3712ZM50.8382 61.2044L49.1387 59.3709L49.1387 59.3709L50.8382 61.2044ZM34.4886 62.8192L32.6552 64.5188L32.6552 64.5188L34.4886 62.8192ZM37.3358 46.6386L39.0354 48.4721L39.0354 48.4721L37.3358 46.6386ZM30.2045 81.5678C22.8152 78.4504 18.6032 73.5309 16.7162 67.9944C14.8068 62.392 15.2006 55.916 17.5142 49.678C22.1752 37.111 34.258 26.3712 48.7327 26.3712V21.3712C31.7074 21.3712 18.0402 33.8813 12.8262 47.9393C10.2023 55.0139 9.62736 62.6941 11.9836 69.6074C14.3622 76.5865 19.6502 82.5419 28.261 86.1746L30.2045 81.5678ZM85.5045 51.3503C84.8281 62.6233 76.2459 72.2986 64.7905 78.157C53.3322 84.0169 39.8126 85.6212 30.2045 81.5678L28.261 86.1746C39.6528 90.9805 54.7668 88.8992 67.0671 82.6087C79.3704 76.3167 89.6719 65.3767 90.4955 51.6497L85.5045 51.3503ZM70.223 69.3226C70.9667 69.1739 71.7109 68.7877 72.2835 68.4559C72.9244 68.0847 73.6426 67.6049 74.398 67.0617C75.9132 65.9722 77.7068 64.5344 79.5504 62.9634C83.2304 59.8274 87.2561 56.0347 89.8498 53.1817L86.1501 49.8183C83.7438 52.4653 79.8859 56.1082 76.3073 59.1578C74.5215 60.6796 72.8421 62.0221 71.479 63.0022C70.7953 63.4938 70.2231 63.8711 69.7771 64.1295C69.2629 64.4275 69.1237 64.4435 69.2424 64.4197L70.223 69.3226ZM79.4966 29.4892C82.1847 34.8655 81.4019 41.9373 78.6852 48.8665C75.9886 55.7443 71.6196 61.8641 68.0762 64.9987L71.3892 68.7437C75.613 65.0071 80.4004 58.1896 83.3402 50.6916C86.2598 43.2448 87.5933 34.5023 83.9687 27.2532L79.4966 29.4892ZM66.6623 16.8725C69.0343 18.0055 75.2252 20.9463 79.4966 29.4892L83.9687 27.2532C78.9513 17.2183 71.5392 13.661 68.8175 12.3608L66.6623 16.8725ZM66.1147 16.6072C66.2813 16.6906 66.4739 16.7825 66.6623 16.8725L68.8175 12.3608C68.616 12.2645 68.4685 12.194 68.3507 12.1351L66.1147 16.6072ZM77.7327 34.3712C77.7327 33.7973 77.5944 33.1279 77.4641 32.5826C77.3171 31.9666 77.1107 31.2362 76.863 30.4364C76.3665 28.8328 75.6751 26.8572 74.8786 24.7862C73.3038 20.6919 71.2317 15.9988 69.3419 13.029L65.1235 15.7134C66.7337 18.2436 68.6616 22.5505 70.2118 26.5811C70.9778 28.5727 71.6302 30.4408 72.0868 31.9153C72.3157 32.6546 72.4882 33.2719 72.6009 33.7438C72.7304 34.2864 72.7327 34.445 72.7327 34.3712H77.7327ZM45.6277 16.8398C57.1214 15.0008 69.6349 20.4801 72.7904 34.9054L77.6749 33.837C73.8305 16.2622 58.344 9.74157 44.8377 11.9026L45.6277 16.8398ZM15.2326 34.3712C17.4815 35.4633 17.481 35.4643 17.4805 35.4653C17.4804 35.4655 17.48 35.4664 17.4797 35.4669C17.4792 35.4679 17.4789 35.4686 17.4787 35.4691C17.4782 35.47 17.4782 35.47 17.4787 35.469C17.4797 35.467 17.4826 35.4611 17.4875 35.4515C17.4972 35.4322 17.5147 35.398 17.5401 35.3497C17.591 35.253 17.6736 35.1 17.7893 34.8978C18.0209 34.4932 18.3843 33.8926 18.8906 33.1522C19.9041 31.6698 21.4835 29.6368 23.7151 27.4945C28.1668 23.2212 35.2183 18.5053 45.6277 16.8398L44.8377 11.9026C33.2502 13.7566 25.3017 19.0407 20.2526 23.8875C17.7338 26.3053 15.9375 28.6124 14.7631 30.3301C14.1754 31.1897 13.7417 31.9041 13.4496 32.4145C13.3035 32.6698 13.1927 32.8744 13.1156 33.0208C13.0771 33.094 13.0469 33.1528 13.025 33.1961C13.0141 33.2178 13.0052 33.2356 12.9983 33.2495C12.9949 33.2564 12.992 33.2624 12.9895 33.2673C12.9883 33.2698 12.9872 33.272 12.9863 33.274C12.9858 33.275 12.9852 33.2762 12.9849 33.2767C12.9843 33.278 12.9838 33.2791 15.2326 34.3712ZM48.9944 21.3849C46.1434 21.0848 42.4917 21.7213 38.8582 22.6712C35.1493 23.6409 31.1646 25.0194 27.5268 26.4113C23.8815 27.806 20.5432 29.23 18.1185 30.3042C16.905 30.8417 15.9177 31.2929 15.2319 31.6105C14.8889 31.7693 14.6212 31.8948 14.4382 31.9811C14.3467 32.0242 14.2763 32.0576 14.2283 32.0804C14.2043 32.0919 14.1858 32.1006 14.1731 32.1067C14.1668 32.1097 14.1618 32.1121 14.1584 32.1138C14.1566 32.1146 14.1553 32.1152 14.1543 32.1157C14.1538 32.116 14.1533 32.1162 14.153 32.1163C14.1526 32.1165 14.1523 32.1167 15.2326 34.3712C16.3129 36.6257 16.3128 36.6258 16.3128 36.6258C16.3129 36.6257 16.313 36.6257 16.3132 36.6256C16.3136 36.6254 16.3145 36.625 16.3156 36.6244C16.318 36.6233 16.3218 36.6215 16.327 36.619C16.3374 36.614 16.3536 36.6063 16.3753 36.596C16.4186 36.5754 16.4842 36.5443 16.5708 36.5035C16.7439 36.4218 17.0011 36.3012 17.333 36.1476C17.9968 35.8401 18.9587 35.4006 20.1437 34.8757C22.5158 33.8248 25.7713 32.4364 29.3135 31.0811C32.8632 29.723 36.6598 28.414 40.1228 27.5086C43.6612 26.5836 46.572 26.1576 48.471 26.3574L48.9944 21.3849ZM49.1387 59.3709C46.8515 61.4912 44.1957 62.6412 41.828 62.875C39.4625 63.1087 37.5399 62.4334 36.322 61.1197L32.6552 64.5188C35.1659 67.2273 38.7676 68.2016 42.3195 67.8508C45.8692 67.5002 49.5239 65.8316 52.5378 63.0378L49.1387 59.3709ZM51.8521 46.7233C53.0699 48.0371 53.5978 50.0053 53.1858 52.3463C52.7735 54.6895 51.4259 57.2507 49.1387 59.3709L52.5378 63.0378C55.5517 60.2439 57.492 56.7259 58.1102 53.2129C58.7287 49.6977 58.0296 46.0326 55.5189 43.3242L51.8521 46.7233ZM39.0354 48.4721C41.3226 46.3518 43.9784 45.2018 46.3461 44.968C48.7116 44.7343 50.6342 45.4096 51.8521 46.7233L55.5189 43.3242C53.0082 40.6157 49.4065 39.6414 45.8546 39.9922C42.3049 40.3428 38.6502 42.0114 35.6363 44.8052L39.0354 48.4721ZM36.322 61.1197C35.1041 59.8059 34.5763 57.8377 34.9883 55.4967C35.4006 53.1535 36.7482 50.5923 39.0354 48.4721L35.6363 44.8052C32.6224 47.5991 30.6821 51.1171 30.0639 54.6301C29.4454 58.1453 30.1445 61.8104 32.6552 64.5188L36.322 61.1197ZM43.0253 67.7627C49.7493 66.9662 57.2844 63.4629 61.6916 57.754C63.9292 54.8554 65.3833 51.349 65.4206 47.3654C65.4579 43.3863 64.0799 39.1605 61.0504 34.8156L56.9489 37.6753C59.5112 41.3501 60.4465 44.5797 60.4209 47.3186C60.3952 50.053 59.41 52.5271 57.7337 54.6986C54.3131 59.1296 48.1224 62.124 42.4372 62.7974L43.0253 67.7627ZM40.8153 65.4272C40.7548 67.9265 40.7559 67.9265 40.757 67.9265C40.7575 67.9266 40.7587 67.9266 40.7597 67.9266C40.7617 67.9266 40.7641 67.9267 40.7668 67.9268C40.7723 67.9269 40.7792 67.927 40.7875 67.9272C40.8042 67.9275 40.8265 67.9278 40.8544 67.9281C40.9103 67.9288 40.9884 67.9293 41.0875 67.9292C41.2858 67.9288 41.5686 67.9257 41.9263 67.9148C42.6414 67.8931 43.6587 67.8405 44.9016 67.7177C47.3819 67.4726 50.7913 66.945 54.5068 65.8091C61.9124 63.5452 70.8032 58.7708 75.6939 48.733L71.199 46.543C67.1432 54.8672 59.7184 58.9875 53.045 61.0276C49.721 62.0438 46.6501 62.5206 44.41 62.7419C43.2927 62.8523 42.3896 62.8984 41.7745 62.9171C41.4672 62.9265 41.2324 62.9289 41.0793 62.9292C41.0028 62.9293 40.9468 62.9289 40.9125 62.9285C40.8953 62.9283 40.8836 62.9281 40.8774 62.928C40.8743 62.9279 40.8726 62.9279 40.8723 62.9279C40.8722 62.9279 40.8724 62.9279 40.8729 62.9279C40.8732 62.9279 40.8739 62.9279 40.874 62.9279C40.8748 62.9279 40.8757 62.9279 40.8153 65.4272ZM47.6079 83.4902C40.291 84.6521 35.2287 82.7042 31.9008 78.8086C28.4463 74.7647 26.5 68.206 26.5 59.5H21.5C21.5 68.794 23.5536 76.7353 28.0991 82.0562C32.7713 87.5254 39.709 89.8071 48.3921 88.4283L47.6079 83.4902Z" fill="black"/>
<defs>
<linearGradient id="paint0_linear_6_548" x1="50.5" y1="14" x2="50.5" y2="86.3224" gradientUnits="userSpaceOnUse">
<stop offset="0.461805" stop-color="#D6D8D6"/>
<stop offset="1" stop-color="#7D7E7D"/>
</linearGradient>
</defs>
</svg>
