<svg width="100" height="100" viewBox="0 0 100 100" fill="none" xmlns="http://www.w3.org/2000/svg">
<path fill-rule="evenodd" clip-rule="evenodd" d="M82 90.5H8.5V74.5H16V79.5H25V74.5L6 55.5V51.5H14.5L39 27H49.5V24H43.5V17H51.5V10H57.5V16H63V22H70V29H63V38.5H57.5V44H68V51.5H71.5V29H79V35H83.5V44H78V47.5H93V54H81V60.5H77V70.5H83.5V64.5H90V70.5H93V79.5L82 90.5ZM19.25 56.25L39 36.5V42H49.5V48.5H35.5V67H30L19.25 56.25ZM56 68V61.5H70V68H56Z" fill="url(#paint0_angular_6_603)"/>
<path d="M14.5 51.5H6V55.5L25 74.5V79.5H16V74.5H8.5V90.5H82L93 79.5V70.5H90M14.5 51.5L39 27H49.5V24H43.5V17H51.5V10H57.5V16H63V22M14.5 51.5L19.25 56.25M63 22H70V29H63V38.5H57.5V44H68V51.5M63 22H57.5M68 51.5H71.5V29H79V35H83.5V44H78V47.5H93V54H81V60.5H77V70.5M68 51.5H61V61.5M77 70.5H83.5M77 70.5H70M83.5 70.5V64.5H90V70.5M83.5 70.5H90M19.25 56.25L39 36.5V42H49.5V48.5H35.5V67M19.25 56.25L30 67H35.5M35.5 67H41M56 61.5V68H70M56 61.5H70M56 61.5H61M56 61.5V70.5M70 61.5V68M70 61.5H61M70 68V70.5M41 67V70.5H49M41 67H44.5M56 70.5H70M56 70.5H49M30 82V86.5M41 82V86.5M49 70.5V59M44.5 67H46.5M44.5 67V62M42 54V58.5" stroke="#330A45" stroke-width="5"/>
<defs>
<radialGradient id="paint0_angular_6_603" cx="0" cy="0" r="1" gradientUnits="userSpaceOnUse" gradientTransform="translate(53.5 42.5) rotate(88.2643) scale(33.0151 33.9703)">
<stop offset="0.24774" stop-color="#8B64AA"/>
<stop offset="0.769097" stop-color="#A168C0"/>
</radialGradient>
</defs>
</svg>
