<svg width="100" height="100" viewBox="0 0 100 100" fill="none" xmlns="http://www.w3.org/2000/svg">
<path fill-rule="evenodd" clip-rule="evenodd" d="M36.8897 18.25V36.25H44.5626C44.5932 35.7602 44.6125 35.1804 44.6238 34.5417V42.25H56.0626V36.25H63.3897V18.25C63.3897 12.65 59.2621 8 51.0068 8C42.7515 8 36.8897 12.75 36.8897 18.25ZM69.8897 29.25V42.25H63.3897V59L50.1238 48L35.7408 58.5C35.7408 58.5 35.6238 59.5 35.7408 48.25V42.25H30.1238V29.25C27.9571 28.4167 22.6238 30.75 22.6238 36.25C22.6238 36.7768 22.6126 37.543 22.599 38.4817V38.4818C22.5599 41.1771 22.5001 45.2943 22.6238 49.25C22.2173 50.876 20.1046 51.8251 17.6612 52.9228C14.0939 54.5253 9.82139 56.4447 9.12376 61.25C8.50676 65.5 10.1238 73 15.6238 75L15.6238 91.75C45.0119 91.75 52.4052 85.2511 55.9973 82.0935C56.1332 81.974 56.2637 81.8594 56.3897 81.75C58.7068 91.791 74.4787 91.7647 82.7646 91.751C82.9821 91.7506 83.1944 91.7503 83.4012 91.7501L83.6238 91.75V75C90.3897 71 91.2468 65.25 90.3897 61.25C89.3816 56.5456 85.2365 54.6076 81.7892 52.9958C79.3742 51.8668 77.3017 50.8978 76.8897 49.25C77.0133 45.2943 76.9536 41.177 76.9145 38.4817L76.9144 38.479L76.9143 38.4729C76.9008 37.5383 76.8897 36.7752 76.8897 36.25C76.8897 30.75 72.0564 28.4167 69.8897 29.25ZM56.0638 25.1985V30.6985H44.6238V25.1985C44.6238 20.4484 56.0638 21.4485 56.0638 25.1985Z" fill="url(#paint0_linear_9_847)"/>
<path fill-rule="evenodd" clip-rule="evenodd" d="M36.8897 18.25V36.25H44.5626C44.5932 35.7602 44.6125 35.1804 44.6238 34.5417V42.25H56.0626V36.25H63.3897V18.25C63.3897 12.65 59.2621 8 51.0068 8C42.7515 8 36.8897 12.75 36.8897 18.25ZM69.8897 29.25V42.25H63.3897V59L50.1238 48L35.7408 58.5C35.7408 58.5 35.6238 59.5 35.7408 48.25V42.25H30.1238V29.25C27.9571 28.4167 22.6238 30.75 22.6238 36.25C22.6238 36.7768 22.6126 37.543 22.599 38.4817V38.4818C22.5599 41.1771 22.5001 45.2943 22.6238 49.25C22.2173 50.876 20.1046 51.8251 17.6612 52.9228C14.0939 54.5253 9.82139 56.4447 9.12376 61.25C8.50676 65.5 10.1238 73 15.6238 75L15.6238 91.75C45.0119 91.75 52.4052 85.2511 55.9973 82.0935C56.1332 81.974 56.2637 81.8594 56.3897 81.75C58.7068 91.791 74.4787 91.7647 82.7646 91.751C82.9821 91.7506 83.1944 91.7503 83.4012 91.7501L83.6238 91.75V75C90.3897 71 91.2468 65.25 90.3897 61.25C89.3816 56.5456 85.2365 54.6076 81.7892 52.9958C79.3742 51.8668 77.3017 50.8978 76.8897 49.25C77.0133 45.2943 76.9536 41.177 76.9145 38.4817L76.9144 38.479L76.9143 38.4729C76.9008 37.5383 76.8897 36.7752 76.8897 36.25C76.8897 30.75 72.0564 28.4167 69.8897 29.25ZM56.0638 25.1985V30.6985H44.6238V25.1985C44.6238 20.4484 56.0638 21.4485 56.0638 25.1985Z" fill="url(#paint1_radial_9_847)" fill-opacity="0.2"/>
<path d="M36.8897 36.25H34.3897V38.75H36.8897V36.25ZM44.5626 36.25V38.75H46.9112L47.0577 36.406L44.5626 36.25ZM44.6238 34.5417H47.1238L42.1242 34.4978L44.6238 34.5417ZM44.6238 42.25H42.1238V44.75H44.6238V42.25ZM56.0626 42.25V44.75H58.5626V42.25H56.0626ZM56.0626 36.25V33.75H53.5626V36.25H56.0626ZM63.3897 36.25V38.75H65.8897V36.25H63.3897ZM69.8897 42.25V44.75H72.3897V42.25H69.8897ZM69.8897 29.25L68.9922 26.9166L67.3897 27.533V29.25H69.8897ZM63.3897 42.25V39.75H60.8897V42.25H63.3897ZM63.3897 59L61.7939 60.9245L65.8897 64.3206V59H63.3897ZM50.1238 48L51.7195 46.0755L50.2215 44.8334L48.6497 45.9808L50.1238 48ZM35.7408 58.5L34.2667 56.4808L33.3846 57.1248L33.2577 58.2095L35.7408 58.5ZM35.7408 48.25L38.2406 48.276L38.2408 48.263V48.25H35.7408ZM35.7408 42.25H38.2408V39.75H35.7408V42.25ZM30.1238 42.25H27.6238V44.75H30.1238V42.25ZM30.1238 29.25H32.6238V27.533L31.0212 26.9167L30.1238 29.25ZM22.599 38.4817L20.0993 38.4454L20.099 38.4635V38.4817H22.599ZM22.599 38.4818L25.0988 38.518L25.099 38.4999V38.4818H22.599ZM22.6238 49.25L25.0491 49.8563L25.1334 49.5192L25.1225 49.1719L22.6238 49.25ZM17.6612 52.9228L16.6368 50.6423L16.6368 50.6423L17.6612 52.9228ZM9.12376 61.25L6.6497 60.8908L9.12376 61.25ZM15.6238 75L18.1238 75L18.1238 73.2489L16.4781 72.6505L15.6238 75ZM15.6238 91.75L13.1238 91.75L13.1238 94.25H15.6238V91.75ZM55.9973 82.0935L54.3468 80.2158L54.3468 80.2158L55.9973 82.0935ZM56.3897 81.75L58.8257 81.1879L57.8908 77.1368L54.751 79.862L56.3897 81.75ZM82.7646 91.751L82.7688 94.251L82.7688 94.251L82.7646 91.751ZM83.4012 91.7501L83.4002 89.2501L83.3993 89.2501L83.4012 91.7501ZM83.6238 91.75L83.6248 94.25L86.1238 94.249V91.75H83.6238ZM83.6238 75L82.3515 72.848L81.1238 73.5738V75H83.6238ZM90.3897 61.25L92.8342 60.7262L92.8342 60.7262L90.3897 61.25ZM81.7892 52.9958L82.848 50.7311L82.848 50.7311L81.7892 52.9958ZM76.8897 49.25L74.3909 49.1719L74.3801 49.5192L74.4644 49.8563L76.8897 49.25ZM76.9145 38.4817L79.4142 38.4454L79.4141 38.4398L76.9145 38.4817ZM76.9144 38.479L74.4147 38.5169L74.4148 38.5209L76.9144 38.479ZM76.9143 38.4729L74.4146 38.5091L74.4146 38.5109L76.9143 38.4729ZM56.0638 30.6985V33.1985H58.5638V30.6985H56.0638ZM44.6238 30.6985H42.1238V33.1985H44.6238V30.6985ZM56.3897 81.75L54.6219 79.9822L53.4961 81.1081L54.0402 82.6044L56.3897 81.75ZM44.596 28.5846H47.096V28.5671L47.0958 28.5497L44.596 28.5846ZM44.596 28.5846H42.096V28.6001L42.0962 28.6155L44.596 28.5846ZM44.596 28.5856L42.0962 28.6164L42.0963 28.6204L44.596 28.5856ZM44.6238 34.5417H42.1238L47.1234 34.5856L44.6238 34.5417ZM63.3897 59L65.3203 57.4117L62.7102 54.2391L61.0918 58.0152L63.3897 59ZM39.3897 36.25V18.25H34.3897V36.25H39.3897ZM44.5626 33.75H36.8897V38.75H44.5626V33.75ZM42.1242 34.4978C42.1133 35.1169 42.0948 35.6558 42.0674 36.0941L47.0577 36.406C47.0915 35.8646 47.1118 35.244 47.1234 34.5856L42.1242 34.4978ZM47.1238 42.25V34.5417H42.1238V42.25H47.1238ZM56.0626 39.75H44.6238V44.75H56.0626V39.75ZM53.5626 36.25V42.25H58.5626V36.25H53.5626ZM63.3897 33.75H56.0626V38.75H63.3897V33.75ZM60.8897 18.25V36.25H65.8897V18.25H60.8897ZM51.0068 10.5C54.6698 10.5 57.1174 11.5258 58.619 12.881C60.1067 14.2235 60.8897 16.0859 60.8897 18.25H65.8897C65.8897 14.8141 64.6089 11.5515 61.9689 9.16903C59.3428 6.79916 55.599 5.5 51.0068 5.5V10.5ZM39.3897 18.25C39.3897 14.748 43.4208 10.5 51.0068 10.5V5.5C42.0821 5.5 34.3897 10.752 34.3897 18.25H39.3897ZM72.3897 42.25V29.25H67.3897V42.25H72.3897ZM63.3897 44.75H69.8897V39.75H63.3897V44.75ZM65.8897 59V42.25H60.8897V59H65.8897ZM48.528 49.9245L61.7939 60.9245L64.9854 57.0755L51.7195 46.0755L48.528 49.9245ZM37.2148 60.5192L51.5978 50.0192L48.6497 45.9808L34.2667 56.4808L37.2148 60.5192ZM33.2409 48.224C33.1824 53.8488 33.1821 56.4372 33.1971 57.6254C33.204 58.1689 33.2142 58.5284 33.2397 58.7573C33.2402 58.7623 33.2637 59.0347 33.3691 59.3382C33.4007 59.4292 33.4736 59.625 33.6133 59.8482C33.7187 60.0165 34.0786 60.5589 34.8202 60.8499C35.7879 61.2297 36.6861 60.9288 37.2225 60.5316C37.6463 60.2179 37.8561 59.8532 37.9236 59.731C38.0793 59.4496 38.1424 59.2018 38.1543 59.1567C38.1785 59.0658 38.1926 58.9919 38.1995 58.9537C38.2074 58.9103 38.2127 58.8744 38.2161 58.8507C38.2179 58.838 38.2194 58.8266 38.2206 58.8168C38.2212 58.8118 38.2218 58.8071 38.2224 58.8028C38.2226 58.8006 38.2229 58.7985 38.2231 58.7965C38.2232 58.7954 38.2234 58.7939 38.2235 58.7934C38.2237 58.792 38.2238 58.7905 35.7408 58.5C33.2577 58.2095 33.2579 58.208 33.258 58.2066C33.2581 58.2061 33.2583 58.2046 33.2584 58.2036C33.2586 58.2017 33.2589 58.1996 33.2591 58.1976C33.2596 58.1934 33.2602 58.1891 33.2607 58.1846C33.2619 58.1757 33.2632 58.1655 33.2648 58.1544C33.2677 58.1337 33.2724 58.102 33.2794 58.0633C33.2855 58.0297 33.2987 57.9607 33.3216 57.8742C33.3324 57.8335 33.3941 57.5897 33.5483 57.311C33.6151 57.1902 33.8241 56.8265 34.2471 56.5133C34.7827 56.1167 35.68 55.8161 36.6469 56.1955C37.3875 56.4862 37.7466 57.0277 37.851 57.1945C37.9898 57.4162 38.0618 57.6099 38.0924 57.6981C38.1568 57.8834 38.183 58.0327 38.1902 58.0739C38.2011 58.1359 38.2066 58.1829 38.2089 58.2036C38.2162 58.2685 38.2044 58.1749 38.1967 57.5621C38.1825 56.4378 38.1821 53.9012 38.2406 48.276L33.2409 48.224ZM33.2408 42.25V48.25H38.2408V42.25H33.2408ZM30.1238 44.75H35.7408V39.75H30.1238V44.75ZM27.6238 29.25V42.25H32.6238V29.25H27.6238ZM25.1238 36.25C25.1238 34.4023 25.9869 33.1567 27.0317 32.3969C27.5713 32.0044 28.1355 31.763 28.6052 31.6535C29.1234 31.5328 29.313 31.6167 29.2263 31.5834L31.0212 26.9167C29.8512 26.4666 28.5617 26.5297 27.4705 26.784C26.3308 27.0495 25.1554 27.5789 24.0908 28.3532C21.9273 29.9266 20.1238 32.5978 20.1238 36.25H25.1238ZM25.0988 38.518C25.1123 37.588 25.1238 36.7995 25.1238 36.25H20.1238C20.1238 36.7542 20.113 37.4981 20.0993 38.4454L25.0988 38.518ZM25.099 38.4818V38.4817H20.099V38.4818H25.099ZM25.1225 49.1719C25.001 45.2817 25.0595 41.2193 25.0988 38.518L20.0993 38.4455C20.0602 41.1348 19.9993 45.3069 20.125 49.3281L25.1225 49.1719ZM18.6857 55.2032C19.8521 54.6792 21.1908 54.0848 22.2736 53.3775C23.344 52.6783 24.6168 51.5857 25.0491 49.8563L20.1984 48.6437C20.2242 48.5403 20.2375 48.7353 19.5391 49.1915C18.8531 49.6397 17.9137 50.0686 16.6368 50.6423L18.6857 55.2032ZM11.5978 61.6092C12.0684 58.3676 14.8449 56.9286 18.6857 55.2032L16.6368 50.6423C13.3428 52.1221 7.57434 54.5217 6.6497 60.8908L11.5978 61.6092ZM16.4781 72.6505C14.6519 71.9864 13.2799 70.34 12.4153 68.0767C11.55 65.8112 11.3518 63.3041 11.5978 61.6092L6.6497 60.8908C6.27876 63.4459 6.58056 66.8138 7.74446 69.8608C8.90917 72.91 11.0956 76.0136 14.7694 77.3495L16.4781 72.6505ZM18.1238 91.75L18.1238 75L13.1238 75L13.1238 91.75L18.1238 91.75ZM54.3468 80.2158C52.6788 81.682 50.2189 83.8653 44.6831 85.7376C39.0548 87.6412 30.1519 89.25 15.6238 89.25V94.25C30.4837 94.25 39.9716 92.6093 46.285 90.4741C52.6909 88.3075 55.7238 85.6625 57.6479 83.9712L54.3468 80.2158ZM54.751 79.862C54.618 79.9774 54.4815 80.0974 54.3468 80.2158L57.6479 83.9712C57.785 83.8507 57.9094 83.7413 58.0284 83.638L54.751 79.862ZM82.7604 89.251C78.5676 89.2579 72.8495 89.2561 67.9146 88.0882C62.8922 86.8996 59.649 84.7556 58.8257 81.1879L53.9537 82.3121C55.4475 88.7854 61.2488 91.6488 66.7631 92.9538C72.3649 94.2796 78.6757 94.2578 82.7688 94.251L82.7604 89.251ZM83.3993 89.2501C83.1912 89.2503 82.9777 89.2506 82.7604 89.251L82.7688 94.251C82.9864 94.2506 83.1977 94.2503 83.4032 94.2501L83.3993 89.2501ZM83.6227 89.25L83.4002 89.2501L83.4023 94.2501L83.6248 94.25L83.6227 89.25ZM81.1238 75V91.75H86.1238V75H81.1238ZM87.9452 61.7738C88.2897 63.3817 88.2817 65.3099 87.537 67.2148C86.8051 69.0869 85.2969 71.1066 82.3515 72.848L84.896 77.152C88.7166 74.8934 91.0199 72.0381 92.1938 69.0352C93.3549 66.0651 93.3468 63.1183 92.8342 60.7262L87.9452 61.7738ZM80.7303 55.2605C84.3873 56.9703 87.2351 58.46 87.9452 61.7738L92.8342 60.7262C91.5281 54.6311 86.0858 52.2449 82.848 50.7311L80.7303 55.2605ZM74.4644 49.8563C74.8919 51.5664 76.1221 52.6677 77.1878 53.3884C78.2566 54.1111 79.5777 54.7216 80.7303 55.2605L82.848 50.7311C81.5857 50.141 80.663 49.7025 79.9888 49.2465C79.3115 48.7885 79.2995 48.5814 79.3151 48.6437L74.4644 49.8563ZM74.4147 38.518C74.4539 41.2192 74.5125 45.2816 74.3909 49.1719L79.3885 49.3281C79.5141 45.3069 79.4532 41.1347 79.4142 38.4454L74.4147 38.518ZM74.4148 38.5209L74.4148 38.5236L79.4141 38.4398L79.4141 38.437L74.4148 38.5209ZM74.4146 38.5109L74.4147 38.5169L79.4141 38.441L79.414 38.435L74.4146 38.5109ZM74.3897 36.25C74.3897 36.7979 74.4012 37.5832 74.4146 38.5091L79.4141 38.4367C79.4004 37.4934 79.3897 36.7525 79.3897 36.25H74.3897ZM70.7871 31.5834C70.7091 31.6134 70.8652 31.5387 71.2971 31.6456C71.6939 31.7438 72.1808 31.9647 72.654 32.3379C73.5616 33.0538 74.3897 34.3023 74.3897 36.25H79.3897C79.3897 32.6977 77.8011 30.0296 75.7504 28.4121C74.7444 27.6186 73.6167 27.0687 72.498 26.7919C71.4142 26.5238 70.1536 26.47 68.9922 26.9166L70.7871 31.5834ZM58.5638 30.6985V25.1985H53.5638V30.6985H58.5638ZM44.6238 33.1985H56.0638V28.1985H44.6238V33.1985ZM42.1238 25.1985V30.6985H47.1238V25.1985H42.1238ZM58.5638 25.1985C58.5638 22.829 56.7671 21.4123 55.4119 20.7213C53.9467 19.9742 52.1472 19.5874 50.4529 19.5133C48.7729 19.4399 46.8944 19.661 45.328 20.4141C43.6869 21.2031 42.1238 22.7591 42.1238 25.1985H47.1238C47.1238 25.1562 47.1295 25.1484 47.1252 25.1613C47.1209 25.1741 47.1159 25.1802 47.1202 25.1744C47.1332 25.1569 47.2224 25.0511 47.4945 24.9203C48.0732 24.6421 49.0546 24.457 50.2346 24.5086C51.4003 24.5595 52.4608 24.829 53.1406 25.1756C53.9304 25.5783 53.5638 25.6929 53.5638 25.1985H58.5638ZM82.3515 72.848C79.0861 74.7785 72.9421 77.7614 67.4256 79.5707C64.6428 80.4835 62.2118 81.0322 60.4601 81.0824C59.5817 81.1076 59.0658 80.9996 58.8118 80.8944C58.7015 80.8487 58.6803 80.8198 58.6977 80.8368C58.7058 80.8447 58.7166 80.8573 58.7266 80.8728C58.7366 80.8883 58.7399 80.8977 58.7392 80.8956L54.0402 82.6044C55.1527 85.6637 58.3612 86.1447 60.6034 86.0804C63.0823 86.0093 66.0588 85.2811 68.9838 84.3217C74.883 82.3869 81.3561 79.2448 84.896 77.152L82.3515 72.848ZM14.8332 77.3717C19.1195 78.8005 25.8627 78.8801 32.471 78.1258C39.1451 77.364 46.2033 75.6907 51.2186 73.2475L49.0289 68.7525C44.7142 70.8544 38.2724 72.4311 31.904 73.1581C25.4698 73.8925 19.628 73.6995 16.4143 72.6283L14.8332 77.3717ZM35.7408 58.5C33.6841 59.9213 33.6843 59.9217 33.6846 59.9221C33.6848 59.9223 33.6851 59.9227 33.6853 59.9231C33.6859 59.9239 33.6866 59.9249 33.6874 59.9261C33.689 59.9284 33.6912 59.9316 33.6939 59.9354C33.6992 59.9431 33.7067 59.9538 33.7162 59.9674C33.7351 59.9946 33.7623 60.0333 33.7972 60.0828C33.8671 60.1817 33.9684 60.3239 34.0981 60.5031C34.3573 60.8612 34.7313 61.3685 35.1972 61.9754C36.1261 63.1855 37.4344 64.8096 38.939 66.4435C40.4325 68.0654 42.1785 69.762 43.9862 71.0715C45.7155 72.3242 47.8729 73.5 50.1238 73.5V68.5C49.5022 68.5 48.4256 68.1133 46.9195 67.0223C45.4918 65.988 44.0012 64.5596 42.617 63.0565C41.244 61.5654 40.0336 60.0645 39.1633 58.9308C38.7296 58.3659 38.3838 57.8966 38.1483 57.5712C38.0305 57.4086 37.9406 57.2821 37.8811 57.198C37.8514 57.1559 37.8293 57.1244 37.8153 57.1043C37.8082 57.0942 37.8032 57.087 37.8002 57.0827C37.7987 57.0806 37.7977 57.0791 37.7973 57.0785C37.797 57.0781 37.7969 57.078 37.797 57.078C37.797 57.078 37.7971 57.0782 37.7971 57.0782C37.7973 57.0784 37.7974 57.0787 35.7408 58.5ZM58.5626 36.25V30.75H53.5626V36.25H58.5626ZM58.5626 30.75V30.6985H53.5626V30.75H58.5626ZM42.0626 25.25C42.0626 26.2065 42.0791 27.388 42.0963 28.6194L47.0958 28.5497C47.0784 27.3065 47.0626 26.164 47.0626 25.25H42.0626ZM42.096 28.5846V28.5846H47.096V28.5846H42.096ZM42.0962 28.6155L42.0962 28.6164L47.0958 28.5547L47.0958 28.5538L42.0962 28.6155ZM42.0963 28.6204C42.1061 29.3274 42.1162 30.0542 42.1239 30.7765L47.1236 30.7235C47.1159 29.9914 47.1056 29.2564 47.0958 28.5507L42.0963 28.6204ZM42.1239 30.7765C42.138 32.1052 42.1435 33.3986 42.1242 34.4978L47.1234 34.5856C47.144 33.4138 47.1378 32.0633 47.1236 30.7235L42.1239 30.7765ZM56.0626 28.25H44.6238V33.25H56.0626V28.25ZM42.1238 30.75V34.5417H47.1238V30.75H42.1238ZM61.4591 60.5883C61.328 60.429 61.2932 60.3126 61.2974 60.3253C61.3004 60.3345 61.3221 60.4076 61.3401 60.5686C61.3771 60.8988 61.3776 61.3969 61.3159 62.0731L66.2952 62.5275C66.3728 61.6774 66.3983 60.8085 66.309 60.0117C66.2273 59.2825 66.0142 58.2551 65.3203 57.4117L61.4591 60.5883ZM61.3159 62.073C61.1098 64.3322 60.3202 67.5157 59.5146 70.3067L64.3185 71.6933C65.1299 68.8821 66.0421 65.301 66.2952 62.5275L61.3159 62.073ZM50.1238 71C51.2184 73.2476 51.219 73.2473 51.2195 73.2471C51.2198 73.247 51.2204 73.2467 51.2208 73.2464C51.2218 73.246 51.2229 73.2454 51.2242 73.2448C51.2267 73.2436 51.2299 73.242 51.2336 73.2402C51.2412 73.2364 51.2512 73.2315 51.2636 73.2253C51.2885 73.213 51.3229 73.1958 51.3665 73.1739C51.4535 73.1299 51.577 73.0668 51.7325 72.9852C52.0433 72.8221 52.4832 72.5846 53.0173 72.2787C54.0828 71.6684 55.5372 70.7774 57.0957 69.6515C60.1257 67.4625 63.9102 64.1321 65.6876 59.9848L61.0918 58.0152C59.8692 60.8679 57.0207 63.5375 54.1677 65.5985C52.7848 66.5976 51.4852 67.3941 50.5321 67.94C50.0569 68.2122 49.6713 68.4201 49.409 68.5578C49.2779 68.6266 49.1779 68.6777 49.1131 68.7104C49.0807 68.7268 49.0571 68.7385 49.043 68.7455C49.0359 68.7491 49.0311 68.7514 49.0288 68.7525C49.0276 68.7531 49.0271 68.7534 49.0271 68.7534C49.0271 68.7534 49.0273 68.7533 49.0276 68.7531C49.0278 68.753 49.0282 68.7529 49.0282 68.7528C49.0286 68.7526 49.0291 68.7524 50.1238 71ZM58.1575 83.5178C59.2148 82.4604 60.3306 80.6663 61.3344 78.7262C62.3754 76.7141 63.4197 74.3002 64.279 71.8178L59.5541 70.1822C58.7711 72.444 57.8209 74.6362 56.8936 76.4286C55.929 78.2929 55.1025 79.5017 54.6219 79.9822L58.1575 83.5178ZM64.279 71.8178C65.3591 68.6976 66.2061 65.3005 66.3042 62.3843L61.307 62.2162C61.2331 64.4144 60.5617 67.2714 59.5541 70.1822L64.279 71.8178ZM66.3042 62.3843C66.3527 60.9402 66.2246 59.4536 65.7335 58.1303L61.0459 59.8697C61.2262 60.3556 61.3437 61.1247 61.307 62.2162L66.3042 62.3843Z" fill="black"/>
<defs>
<linearGradient id="paint0_linear_9_847" x1="49.8324" y1="42.5" x2="49.8071" y2="65" gradientUnits="userSpaceOnUse">
<stop stop-color="#E0F0F0"/>
<stop offset="1" stop-color="#86BBD2"/>
</linearGradient>
<radialGradient id="paint1_radial_9_847" cx="0" cy="0" r="1" gradientUnits="userSpaceOnUse" gradientTransform="translate(37.3633 20) scale(25.3859 25.5)">
<stop offset="0.0150025" stop-color="white"/>
<stop offset="0.494346" stop-color="#71EEEE" stop-opacity="0.53"/>
<stop offset="1" stop-color="white"/>
</radialGradient>
</defs>
</svg>
