<svg width="100" height="100" viewBox="0 0 100 100" fill="none" xmlns="http://www.w3.org/2000/svg">
<path d="M11 17H31.5L61 36.5H76.5V41H88.5V52.5V61.5L88.5 71.0785L88.5 71.5V83H60C57.1667 78.1667 51.5 66.2 51.5 57C50.5 71.5 44.5 72.5 40.5 77.5C40.5 77.5 40.657 53.7865 40.5138 41.1162C40.3407 47.0963 36.6514 59.8803 31.5 65.5V57V48.8947C31.3393 55.1205 24 73 24 73C24 73 20.1667 44 20.5 33.5C20 38.3333 15 44 11 51V17Z" fill="url(#paint0_linear_6_781)"/>
<path d="M88.5 52.5V41H76.5V36.5H61L31.5 17H11V51C15 44 20 38.3333 20.5 33.5C20.1667 44 24 73 24 73C24 73 31.6667 54.323 31.5 48.5V57V65.5C37 59.5 40.8333 45.3333 40.5 40C40.6667 52.3333 40.5 77.5 40.5 77.5C44.5 72.5 50.5 71.5 51.5 57C51.5 66.2 57.1667 78.1667 60 83H88.5V71.5M88.5 52.5C88.5 52.5 73.5678 52.5 64 52.5C67.1667 50.5 81.7 49.7 88.5 52.5ZM88.5 52.5V61.5M88.5 61.5H69.5C72.3333 59.8333 83.7 59.5 88.5 61.5ZM88.5 61.5L88.5 71.0785M88.5 71.5L88.5 71.0785M88.5 71.5H82H74.5C78 69.5 81 71.0785 88.5 71.0785" stroke="black" stroke-width="5"/>
<defs>
<linearGradient id="paint0_linear_6_781" x1="49.75" y1="17" x2="49.75" y2="83" gradientUnits="userSpaceOnUse">
<stop offset="0.300347" stop-color="#4CD6F7"/>
<stop offset="0.592014" stop-color="#D2F5F9" stop-opacity="0.76"/>
</linearGradient>
</defs>
</svg>
