<svg width="100" height="100" viewBox="0 0 100 100" fill="none" xmlns="http://www.w3.org/2000/svg">
<circle cx="50.5" cy="50.5" r="43.5" fill="url(#paint0_linear_10_887)"/>
<path fill-rule="evenodd" clip-rule="evenodd" d="M39.5868 18.1643C39.0634 17.6834 38.6276 17.283 38.273 17.0392C37.5395 16.5349 37.0213 16.5923 36.3564 16.6661C36.1461 16.6894 35.921 16.7143 35.6698 16.7237C34.7479 16.7578 34.4425 17.8451 34.1927 18.734L34.1927 18.734L34.1927 18.734L34.1927 18.7341L34.1927 18.7341C34.1144 19.013 34.0415 19.2723 33.9568 19.4734C33.8584 19.7071 33.7537 19.9286 33.6518 20.144L33.6517 20.1441L33.6517 20.1442L33.6516 20.1443L33.6516 20.1444C33.248 20.9977 32.8893 21.7561 33.1454 22.8091C33.2246 23.1347 33.311 23.465 33.3983 23.7989C33.8391 25.4852 34.3038 27.2624 33.9906 28.9847C33.9425 29.2493 33.878 29.5046 33.8148 29.7547C33.5871 30.6562 33.3766 31.4895 34.0132 32.4444C34.7814 33.5968 36.1261 34.1686 37.4391 34.1686C37.6648 34.1686 37.9086 34.1818 38.1606 34.1954C39.0002 34.2407 39.9306 34.291 40.5832 33.8756C41.2324 33.4626 42.2337 33.5049 43.0911 33.5411C43.3204 33.5508 43.5394 33.5601 43.7386 33.5601C44.2423 33.5601 44.7219 33.6121 45.1953 33.6635L45.1954 33.6635C45.6567 33.7135 46.1123 33.763 46.5785 33.763C47.949 33.763 46.7669 34.1836 46.0095 34.4531L46.0093 34.4532C45.8178 34.5213 45.6534 34.5798 45.5643 34.6194C45.3625 34.7091 45.1371 34.7956 44.9053 34.8845L44.9052 34.8845L44.9052 34.8846L44.9051 34.8846L44.9051 34.8846C44.3555 35.0954 43.77 35.3201 43.378 35.6337C43.2664 35.7229 42.9639 35.7527 42.6342 35.7852C41.9075 35.8569 41.0488 35.9415 41.8116 36.7043C42.1078 37.0005 42.5884 37.0961 43.0533 37.1886C43.6777 37.3128 44.274 37.4314 44.3585 38.0228C44.3714 38.1136 44.3841 38.2118 44.3974 38.3153V38.3153L44.3974 38.3154C44.5045 39.1458 44.6549 40.3124 45.3614 40.7049C46.1762 41.1575 47.2834 42.0504 47.7505 42.8911C48.1369 43.5866 48.967 44.7641 49.7227 45.0999C50.7599 45.5609 51.5197 46.4449 52.2884 47.3392C52.8177 47.9551 53.3512 48.5758 53.9825 49.0668C54.7437 49.6588 59.1116 52.5202 60.2821 52C60.2821 52 57.0848 50.0368 56.766 49.495C56.4192 48.9054 55.893 48.3515 55.4024 47.8609C55.2074 47.6659 55.0414 47.4045 54.8733 47.1397C54.6204 46.7413 54.3627 46.3354 53.9938 46.1367C53.8224 46.0444 53.5889 45.9924 53.3791 45.9456C52.9502 45.85 52.6208 45.7766 53.126 45.4268C53.1787 45.3903 52.8616 45.3085 52.508 45.2173C52.1009 45.1123 51.6453 44.9948 51.6497 44.9196C51.6669 44.6271 51.4504 44.0882 51.2601 43.6144L51.2601 43.6144C51.144 43.3256 51.0377 43.061 51 42.8911C51 42.8911 51.1071 41.5321 50.4327 41.1106C49.8295 40.7336 49.6213 39.5172 49.6213 38.8342C49.6213 37.8064 50.1962 38.0729 50.8052 38.3552C51.099 38.4914 51.4008 38.6313 51.6497 38.6313C52.0683 38.6313 52.4152 38.8261 52.7693 39.025C53.1218 39.223 53.4815 39.4249 53.9262 39.4427C54.3316 39.4589 54.7326 39.5468 55.1425 39.6367C55.6195 39.7412 56.1086 39.8484 56.6308 39.8484C56.9379 39.8484 57.3106 39.8139 57.6945 39.7783C58.3352 39.7189 59.0074 39.6566 59.4594 39.747C59.9228 39.8397 60.3494 39.6878 60.7833 39.5332C61.3145 39.3441 61.8566 39.151 62.4909 39.3976C63.0783 39.6261 63.8023 39.5668 64.5101 39.5088C65.7475 39.4075 66.9354 39.3103 67.2578 40.7612C67.4883 41.7982 66.7308 42.4535 66.014 43.0737C65.7722 43.2829 65.5351 43.4881 65.342 43.7025C64.9757 44.1096 63 44.9196 63 44.9196C63.0093 45.0778 63.5196 45.2047 64.0639 45.34C64.6073 45.475 65.1844 45.6185 65.3308 45.8099C65.9896 45.5105 66.1378 45.7468 66.3512 46.0869C66.4857 46.3012 66.646 46.5566 66.9761 46.7453C67.2742 46.9156 67.5251 47.1971 67.7758 47.4783C68.1597 47.909 68.543 48.339 69.0947 48.3681C69.1579 48.3714 69.2196 48.3745 69.28 48.3775C70.2909 48.4282 70.9221 48.4599 71.6867 49.2245C72.0316 49.5694 72.4525 49.7733 72.8813 49.981C73.3265 50.1967 73.7801 50.4164 74.166 50.8022C74.5174 51.1537 75.3222 51.2588 76.1419 51.3659C77.0048 51.4786 77.884 51.5935 78.268 52C78.4146 52.1552 78.6126 52.1862 78.8542 52.224C79.4858 52.323 80.415 52.4685 81.5 55C81.7012 55.0861 81.8886 55.1656 82.0629 55.2395L82.0639 55.2399L82.0663 55.2409C83.4174 55.814 83.9826 56.0537 84.1222 56.4451C84.2226 56.7266 84.103 57.0864 83.8974 57.7051C83.7837 58.0473 83.6437 58.4688 83.5 59C83.5 59 81 65.5 74.5 69C73.2773 69.6114 71.6625 70.3579 70.3118 70.5C69.56 70.5792 68.7295 70.536 67.8975 70.4927H67.8974H67.8974H67.8973H67.8973C67.0166 70.4469 66.1343 70.401 65.342 70.5C63.5242 70.7273 62.4909 73.1607 62.4909 73.1607C62.4909 73.5717 61.4776 73.1194 60.6141 72.734C60.0807 72.4959 59.6044 72.2833 59.4594 72.3155C59.2848 72.3543 58.271 72.7767 58.186 72.9128C58.1673 72.9426 57.9218 73.1554 57.5743 73.4566L57.5742 73.4568C56.5888 74.3109 54.783 75.8761 55 76C55 76 58.6368 75.8541 59.4594 75.8541C60.2821 75.8541 61.5 75 61.5 75C61.5 75 64.4605 76.5 65.0378 76.5C65.4743 76.5 65.7813 75.841 66.1266 75.0994C66.648 73.98 67.2569 72.6726 68.5313 73.1607C69.7988 73.6461 71.0286 73.3441 71.9863 73.1089C72.374 73.0137 72.717 72.9294 73 72.9128C73.8394 72.8634 85 64 85 64C85 64 84.2301 65.9136 83.1312 68C82.2303 69.2682 82.0676 69.7322 81.9534 70.0581C81.7974 70.503 81.7318 70.6902 80 72.3155L79.9991 72.3635C79.9777 73.5046 79.9586 74.5276 77 76.5C76.7138 76.8844 76.4421 77.2529 76.1776 77.6117C74.381 80.0483 72.9152 82.0363 69.5 85.5C68.3525 88.5195 73.0412 85.4466 74.2343 84.6648C74.4258 84.5393 74.5272 84.4728 74.5 84.5C74.5 84.5 94.5 66.5 91 42.5C87.5 18.5 71.5 15.5 71.5 15.5C68.1828 14.4385 61.503 13.3483 58 14C57.5497 14.0838 56.6446 14.0793 55.6153 14.0742C53.7254 14.065 51.4168 14.0536 50.7369 14.5824C49.9605 15.1863 48.953 15.6405 47.9985 16.07C47.7975 16.1604 47.5604 16.195 47.3274 16.229C47.027 16.2728 46.7335 16.3156 46.5334 16.4757C46.3739 16.6033 45.6248 17.0821 45.4628 17.118C44.3349 17.3687 44.9534 18.5114 45.3627 19.2677L45.3628 19.2678C45.421 19.3754 45.4751 19.4752 45.5192 19.5635C45.9178 20.3607 45.208 20.7708 44.557 21.1469C44.3538 21.2643 44.1563 21.3785 44 21.5C42.1179 20.4899 40.666 19.1559 39.5868 18.1643ZM20.6139 77C22.5121 76.2129 24.5634 72.3948 23.5552 70.58C23.368 70.2431 23.0783 69.8497 22.7817 69.4469C22.4152 68.9493 22.0381 68.4374 21.831 68C21.6767 67.6742 21.6535 67.333 21.6307 66.9967C21.6014 66.5648 21.5727 66.1409 21.2675 65.768C21.1196 65.5872 21.0286 65.3072 20.9376 65.0271C20.8286 64.6916 20.7195 64.3559 20.5125 64.1902C20.1523 63.9021 20.3 63.508 20.4496 63.109C20.5315 62.8907 20.6139 62.6708 20.6139 62.466C20.6139 61.9596 19.2328 60.5468 18.4521 59.7482L18.452 59.748C18.2492 59.5406 18.087 59.3747 18 59.2768C17.4392 58.6459 19.5322 58.3809 20.5125 58.8711C21.3383 59.284 21.9406 59.9447 22.5 60.584C22.6849 60.7954 22.8223 61.0101 22.9531 61.2145C23.1314 61.4931 23.2975 61.7528 23.5552 61.9589C23.7864 62.1439 24.1148 62.181 24.4733 62.2215C24.8074 62.2592 25.1677 62.2999 25.5 62.466C25.8432 62.6376 26.2899 62.553 26.7344 62.4688C27.1993 62.3808 27.6616 62.2932 28 62.5C28.3196 62.6953 33.2508 66.2509 33.5 66.5C34.5 68 39.5858 68.5 41 68.5C41.4427 68.5 42.4735 69.3821 43.5716 70.3218C44.9538 71.5045 46.4427 72.7786 47 72.5C47.4472 72.2764 43.5 67 41 67C41 66.8125 40.3675 66.7656 39.4985 66.7012C38.0497 66.5938 35.9437 66.4376 35.0161 65.5C34.9116 65.3943 34.7177 65.1938 34.4612 64.9287L34.4612 64.9286C33.0511 63.4707 29.7497 60.0573 29 59.6825C28.675 59.52 27.9246 59.5683 27.1146 59.6204H27.1146C25.9673 59.6942 24.7007 59.7757 24.3553 59.2768C24.1332 58.956 23.8704 58.627 23.5997 58.2881C22.7539 57.2291 21.831 56.0736 21.831 54.769C21.831 54.6205 21.7752 54.3246 21.7131 53.9955L21.7131 53.9955C21.5654 53.2125 21.3822 52.2416 21.831 52.6195C22.1479 52.8864 22.6668 53.2086 23.2112 53.5468L23.2113 53.5468L23.2113 53.5469L23.2114 53.5469L23.2115 53.547L23.2115 53.547C23.9194 53.9866 24.6704 54.453 25.0766 54.8592L25.1559 54.9386C26.6767 56.4599 28.04 57.8236 30.1478 58.409C30.5605 58.5237 30.9727 58.548 31.3831 58.5722C31.9219 58.6039 32.4576 58.6355 32.9877 58.8711C33.2613 58.9927 33.5392 59.089 33.8171 59.1852L33.8172 59.1853L33.8172 59.1853L33.8173 59.1853L33.8173 59.1853C34.2206 59.325 34.6243 59.4648 35.0161 59.6825C35.71 60.068 43.5 63.8296 44 62.466C43.3758 61.2912 41.9973 60.3705 41.0338 59.7269C40.4538 59.3395 40.0242 59.0526 40 58.8711C39.8347 57.6317 38.7932 56.6368 37.749 55.6395C36.7348 54.6708 35.7181 53.6997 35.5 52.5C35 51.5 32.0627 51.5 31 51.5C30.4508 51.5 29.9428 49.3769 30.1478 48.762C30.4452 47.8698 30.4897 47.2979 30.1478 46.5C29.8991 45.9198 29.3501 45.5539 28.807 45.1919C28.4873 44.9789 28.1697 44.7672 27.9164 44.5139C27.793 44.3904 27.6542 44.2773 27.5147 44.1635C27.2097 43.9148 26.9016 43.6636 26.7444 43.2968C26.6234 43.0145 26.3795 42.7139 26.1318 42.4088C25.8859 42.1058 25.6364 41.7984 25.5 41.5C24.7626 39.887 24.7857 36.8464 26.0006 35.2843C26.2342 34.984 26.3888 34.6284 26.5418 34.2764C26.7113 33.8864 26.879 33.5007 27.1501 33.1995C27.2783 33.0571 27.4045 32.9328 27.5275 32.8117L27.5275 32.8117L27.5276 32.8116C27.834 32.51 28.1205 32.2279 28.3672 31.7344C28.466 31.5369 28.6042 31.337 28.7453 31.1328C29.0346 30.7143 29.3364 30.2778 29.3364 29.8074C29.3364 29.527 30.1478 26.5 30.1478 26.5C30.1478 26.5 31.5812 24.5812 31 24C30.8479 23.8479 30.5127 23.7526 30.1677 23.6544C29.7057 23.5229 29.226 23.3864 29.1448 23.1021C29.0958 22.9308 29.0908 22.7485 29.086 22.5762C29.0744 22.156 29.0644 21.7948 28.4236 21.7948C28.2303 21.7948 28.0508 21.7639 27.8772 21.734C27.4702 21.6638 27.096 21.5992 26.6543 21.9526C26.3744 22.1765 25.946 22.3414 25.5107 22.5089L25.5107 22.5089L25.5107 22.5089L25.5107 22.5089C25.1194 22.6595 24.7225 22.8122 24.4229 23.0119C23.5436 23.5982 22.5324 23.8523 21.548 24.0997C20.1669 24.4467 18.8384 24.7806 18 26C18 26 -1.5 44.5139 20.6139 77ZM49.9255 72.1014C50.7451 72.1014 51.5834 71.9398 52.4133 71.7798C54.2459 71.4266 56.0381 71.0811 57.5 72.5C57.1969 72.6516 56.8427 73.038 56.4669 73.448L56.4669 73.4481C55.9058 74.0603 55.2966 74.7251 54.7375 74.7384C54.4672 74.7448 53.783 74.8591 53.5768 75.0652C53.484 75.158 53.408 75.2814 53.3308 75.4068L53.3308 75.4069C53.186 75.6419 53.037 75.8839 52.7654 75.9442C52.2471 76.0594 51.898 75.8585 51.5192 75.6406C51.3367 75.5355 51.1472 75.4265 50.9285 75.3469C50.6938 75.2616 50.4532 75.193 50.2131 75.1246C49.563 74.9394 48.9169 74.7553 48.4042 74.2425C48.153 73.9914 47.2713 72.347 47.9985 72.3042C48.2922 72.2869 48.5694 72.246 48.8444 72.2054L48.8445 72.2054H48.8445H48.8445H48.8446C49.1985 72.1531 49.5487 72.1014 49.9255 72.1014ZM48.9321 64.3784C47.952 63.6135 46.7533 62.6781 44.5 63C44.5 63.7249 45.1743 64.7566 45.722 65.2495C45.958 65.4619 49 66.7495 50.5 65.2495C49.9498 65.1725 49.4744 64.8015 48.9321 64.3784ZM55 66.5C54.2933 66.3234 53.8364 66.3339 53.4747 66.3423C52.8127 66.3577 52.47 66.3656 51.5 65.2045C51.425 65.0239 51.3501 64.8592 51.2835 64.7129C50.9062 63.8838 50.7998 63.6499 52.5 64.5C53.2004 64.8502 53.9344 64.7423 54.4789 64.6623C54.8093 64.6138 55.0699 64.5755 55.2109 64.656C56 65 56 66 56 66L55.9992 66.0784C55.991 66.9018 55.9874 67.2583 55.8756 67.2963C55.7903 67.3253 55.6418 67.1688 55.38 66.8927C55.2733 66.7801 55.1477 66.6478 55 66.5ZM65.2406 52.2222C63.1745 52.2222 62.6736 52.9614 64.4292 54.3408C64.6438 54.5094 64.8423 54.819 65.0591 55.1572C65.5918 55.9883 66.2351 56.9919 67.5 56.5C68.7857 56 68.004 52.2222 65.2406 52.2222Z" fill="white"/>
<path fill-rule="evenodd" clip-rule="evenodd" d="M71.5 15.5C68.1828 14.4385 61.5031 13.3483 58 14C57.5498 14.0838 56.6446 14.0793 55.6153 14.0742C53.7254 14.065 51.4169 14.0536 50.7369 14.5824C49.9605 15.1863 48.953 15.6405 47.9985 16.07C47.7976 16.1604 47.5604 16.195 47.3274 16.229C47.027 16.2728 46.7335 16.3156 46.5334 16.4757C46.3739 16.6033 45.6248 17.0821 45.4629 17.118C44.3349 17.3687 44.9534 18.5114 45.3628 19.2677C45.421 19.3754 45.475 19.4752 45.5192 19.5635C45.9323 20.3897 44.6755 21.1809 43.8053 21.7287C43.5738 21.8745 43.3696 22.003 43.2315 22.1104C42.1515 22.9504 42.5836 23.9939 43.1301 24.9503C43.6966 25.9416 44.4762 27.2238 45.7221 27.2718C46.5033 27.3018 47.835 27.6218 48.5619 27.8803C49.1782 28.0994 49.8198 28.0959 50.4645 28.0924C50.9588 28.0897 51.4549 28.087 51.9428 28.1846C52.5021 28.2965 53.1013 28.3604 53.7079 28.4251C54.8651 28.5485 56.0494 28.6749 57.0365 29.1425C57.4728 29.3491 58.1921 29.6323 58.6593 29.7172C59.249 29.8244 59.3645 30.1174 59.5128 30.4938C59.5414 30.5664 59.5712 30.6421 59.6059 30.7202C59.7824 31.1174 59.601 31.5834 59.4257 32.0336C59.2139 32.5776 59.011 33.0986 59.4594 33.4474C59.9609 33.8374 61.0785 34.1001 61.6795 34.1573C61.9689 34.1849 62.2782 34.2819 62.577 34.3756C62.8772 34.4697 63.1668 34.5605 63.415 34.5743C63.8005 34.5957 64.1758 34.5333 64.543 34.4722C64.8484 34.4213 65.1481 34.3715 65.4435 34.3715C65.8499 34.3715 66.2488 34.5329 66.6459 34.6936C66.9552 34.8188 67.2635 34.9436 67.5734 34.9913C68.8197 35.183 69.6404 36.2035 70.2217 37.2001C70.2571 37.2607 70.2965 37.3249 70.3375 37.3919C70.6392 37.8836 71.033 38.5255 70.6161 39.0257C70.2725 39.4381 69.8736 40.3104 69.9061 40.8626C69.9594 41.7678 72.0098 42.1176 72.8496 42.2609C72.9226 42.2734 72.9864 42.2843 73.039 42.2938C73.455 42.3695 73.7603 43.2449 73.7603 43.6011C73.7603 44.1196 73.9319 44.5838 74.107 45.0573C74.1832 45.2633 74.2601 45.4711 74.3237 45.6859C74.3802 45.8765 74.4031 46.1134 74.4268 46.3587C74.4701 46.8068 74.5161 47.283 74.7745 47.5566C75.093 47.8938 75.4531 48.062 75.8243 48.2353C75.9803 48.3081 76.1382 48.3819 76.2959 48.4695C77.4095 49.0881 78.8811 49.7125 80.1387 50.0359C80.2665 50.0687 80.4003 50.1008 80.5378 50.1338C81.2843 50.3128 82.1366 50.5171 82.6856 51.0051C83.0578 51.3359 83.055 51.577 83.0512 51.902C83.0492 52.0769 83.0469 52.276 83.1026 52.5264C83.2815 53.3315 84.8708 53.8392 85.5706 53.597C86.7666 53.183 87.7309 52.5556 88.5682 51.6136C89.0506 51.071 91 48.4695 91 45.6859C91 45.6859 92.412 45.6859 88.5682 35.5C87.8998 33.7287 86.8036 31.8409 85.8285 30.1619C85.7415 30.0119 85.6553 29.8636 85.5706 29.7172C83.1654 25.5629 79.9742 21.7685 76.3973 18.5493C75.0064 17.2974 73.2295 15.7306 71.5 15.5ZM21.5 78.694C22.7801 77.4515 29.2259 71.6895 30.5 73.5C30.9245 74.1032 30.9816 74.8384 31.0384 75.5691C31.0917 76.2544 31.1446 76.9356 31.5 77.5C32.1298 78.5002 33.1998 79.5445 34 79.5C34.1364 79.4924 34.4568 79.3253 34.8788 79.1051C35.7307 78.6606 36.9969 78 38 78C41.0089 78.3761 41.9188 79.3071 42.487 79.8884C42.6741 80.0799 42.8242 80.2335 43 80.3168C43.9242 80.3709 45.137 79.8369 46.5204 79.2278C48.8792 78.1892 51.734 76.9323 54.5 78L56.8224 78.8968C57.3098 79.1676 57.8527 79.3886 58.3869 79.6061C58.6792 79.7251 58.9688 79.843 59.2453 79.9674C59.6939 80.1693 60.2578 80.06 60.8245 79.9501C61.382 79.842 61.9423 79.7334 62.3984 79.92C63.2366 82.2635 64.7568 82.6001 65.5559 82.777C65.807 82.8326 65.9869 82.8724 66.052 82.9538C66.1229 83.0424 67.1254 82.936 68.4416 82.7963C71.9329 82.4259 77.6311 81.8213 74 84L68.5 87.5C55.5 97 25.8434 87.0214 21.5 78.694Z" fill="url(#paint1_linear_10_887)"/>
<circle cx="50.5" cy="50.5" r="41" stroke="black" stroke-width="5"/>
<defs>
<linearGradient id="paint0_linear_10_887" x1="50.5" y1="7" x2="50.5" y2="94" gradientUnits="userSpaceOnUse">
<stop offset="0.474418" stop-color="#06F3C4"/>
<stop offset="0.577916" stop-color="#005E80"/>
</linearGradient>
<linearGradient id="paint1_linear_10_887" x1="84.5" y1="22" x2="37" y2="86.5" gradientUnits="userSpaceOnUse">
<stop offset="0.0768632" stop-color="#71AA34"/>
<stop offset="0.233943" stop-color="#DCF607"/>
<stop offset="0.783015" stop-color="#DCF607"/>
<stop offset="1" stop-color="#3EB58C"/>
</linearGradient>
</defs>
</svg>
