<svg width="100" height="100" viewBox="0 0 100 100" fill="none" xmlns="http://www.w3.org/2000/svg">
<path d="M65 91.1327H7C10.2 73.1327 21.6667 68.6328 27 68.6328C26.5 62.1328 33 44.1328 41 39.1328C38 37.1328 38.5 35.1328 16 46.6328C22 23.5 33.5 22.5 34 22.2C40 -2.29999 66 12.6328 61 25.1328C95.8 24.7328 94.8333 47.2994 90 58.6328C89.5 55.9766 86.4 50.0581 78 47.6328C83.2 60.4328 72.5 63.6328 66.5 63.6328C68 62.6328 69.4 58.5328 63 50.1328C46 33.6328 46 59.6328 46 71.1328C57.2 73.5328 63.3333 85.4661 65 91.1327Z" fill="#D7D6D4"/>
<path d="M34 22.2C40 -2.29999 66 12.6328 61 25.1328C95.8 24.7328 94.8333 47.2994 90 58.6328C89.5 55.9766 86.4 50.0581 78 47.6328C83.2 60.4328 72.5 63.6328 66.5 63.6328C68 62.6328 69.4 58.5328 63 50.1328C46 33.6328 46 59.6328 46 71.1328C57.2 73.5328 63.3333 85.4661 65 91.1327H7C10.2 73.1327 21.6667 68.6328 27 68.6328C26.5 62.1328 33 44.1328 41 39.1328C38 37.1328 38.5 35.1328 16 46.6328C22 23.5 33.5 22.5 34 22.2ZM34 22.2C36.5 21.5 44.67 20.47 53.5 28.13" stroke="black" stroke-width="5"/>
</svg>
