<svg width="100" height="100" viewBox="0 0 100 100" fill="none" xmlns="http://www.w3.org/2000/svg">
<path fill-rule="evenodd" clip-rule="evenodd" d="M43.6284 78.7947L60.164 56.2577C64.164 58.2577 66.6491 60.5001 66.6491 62.5001C66.6491 68.5001 78.6639 69.2577 82.1639 63.2577C85.2309 58.0001 83.1639 49.2577 73.6639 50.2577C71.3809 50.498 67.164 47.2577 67.164 47.2577L71.6284 40.2577C71.6284 40.2577 81.1135 41.3818 86.6491 35.3448C91.6491 28.3448 90.6699 17.895 84.1491 12.8448C69.9317 1.8338 60.164 12.3449 57.1491 17.3448C51.7211 26.3469 60.164 33.7947 60.164 33.7947L55.164 40.2577C54.8056 40.0188 54.4503 39.7871 54.102 39.5599C51.534 37.8851 49.3474 36.4591 49.164 34.2577C48.664 28.2577 39.164 22.7577 32.664 29.2577C25.3838 36.5378 33.664 47.2577 41.664 44.7577C45.0306 43.7056 48.664 48.7577 48.664 48.7577L31.6284 70.2947C31.0298 69.7959 30.3353 69.2698 29.5832 68.7C24.7245 65.0192 17.4613 59.517 18.1284 47.7947C18.1785 46.915 19.3735 45.5062 20.6416 44.0111C22.2567 42.1071 23.9903 40.0632 23.6284 38.7947C23.0329 36.7074 17.5533 27.1885 15.1491 32.0001C4.95188 52.4085 10.9159 68.5679 24.1491 79.5001C23.6284 87.5001 28.6491 90.5001 37.1491 88.0001C56.1491 95.0001 81.0235 90.9759 90.6491 77.5001C93.1491 74.0001 79.5964 72.2652 77.1491 73.0001C75.9743 73.7049 75.3516 75.2932 74.708 76.9345C73.982 78.7859 73.2296 80.7049 71.6284 81.5001C59.1491 83.5001 47.1922 80.933 43.6284 78.7947ZM72.6491 30.3448C75.6867 30.3448 78.1491 27.8824 78.1491 24.8448C78.1491 21.8072 75.6867 19.3448 72.6491 19.3448C69.6116 19.3448 67.1491 21.8072 67.1491 24.8448C67.1491 27.8824 69.6116 30.3448 72.6491 30.3448Z" fill="#C4C4C4"/>
<path d="M60.164 56.2577L61.282 54.0216L59.3958 53.0785L58.1483 54.7788L60.164 56.2577ZM43.6284 78.7947L41.6127 77.3158L39.9902 79.5272L42.3422 80.9384L43.6284 78.7947ZM82.1639 63.2577L80.0045 61.998L80.0045 61.998L82.1639 63.2577ZM73.6639 50.2577L73.9257 52.7439L73.9257 52.7439L73.6639 50.2577ZM67.164 47.2577L65.0562 45.9134L63.8245 47.8445L65.6407 49.24L67.164 47.2577ZM71.6284 40.2577L71.9226 37.7751L70.3644 37.5904L69.5206 38.9134L71.6284 40.2577ZM86.6491 35.3448L88.4917 37.0344L88.5948 36.922L88.6834 36.7979L86.6491 35.3448ZM84.1491 12.8448L82.6183 14.8214L82.6183 14.8214L84.1491 12.8448ZM57.1491 17.3448L55.0082 16.0539L55.0082 16.0539L57.1491 17.3448ZM60.164 33.7947L62.1413 35.3244L63.5756 33.4705L61.8178 31.9199L60.164 33.7947ZM55.164 40.2577L53.7772 42.3378L55.7157 43.6302L57.1413 41.7874L55.164 40.2577ZM54.102 39.5599L52.7363 41.654L52.7363 41.654L54.102 39.5599ZM32.664 29.2577L34.4317 31.0254L34.4317 31.0254L32.664 29.2577ZM41.664 44.7577L40.9183 42.3715L40.9183 42.3715L41.664 44.7577ZM48.664 48.7577L50.6247 50.3086L51.7948 48.8293L50.6936 47.2981L48.664 48.7577ZM31.6284 70.2947L30.0279 72.2153L31.9981 73.8571L33.5891 71.8456L31.6284 70.2947ZM29.5832 68.7L28.0736 70.6927L28.0736 70.6927L29.5832 68.7ZM18.1284 47.7947L15.6324 47.6526L15.6324 47.6526L18.1284 47.7947ZM20.6416 44.0111L22.5481 45.6283L22.5481 45.6283L20.6416 44.0111ZM23.6284 38.7947L21.2243 39.4806L21.2243 39.4806L23.6284 38.7947ZM15.1491 32.0001L12.9127 30.8826L12.9127 30.8826L15.1491 32.0001ZM24.1491 79.5001L26.6438 79.6624L26.7269 78.3868L25.7414 77.5727L24.1491 79.5001ZM37.1491 88.0001L38.0134 85.6542L37.2372 85.3683L36.4437 85.6016L37.1491 88.0001ZM90.6491 77.5001L92.6835 78.9532L92.6835 78.9532L90.6491 77.5001ZM77.1491 73.0001L76.4301 70.6057L76.1308 70.6955L75.8629 70.8563L77.1491 73.0001ZM74.708 76.9345L77.0355 77.8471L77.0355 77.8471L74.708 76.9345ZM71.6284 81.5001L72.024 83.9686L72.3996 83.9084L72.7403 83.7392L71.6284 81.5001ZM58.1483 54.7788L41.6127 77.3158L45.644 80.2736L62.1796 57.7366L58.1483 54.7788ZM69.1491 62.5001C69.1491 60.4711 67.9254 58.7932 66.6245 57.5626C65.2604 56.2724 63.4046 55.0829 61.282 54.0216L59.0459 58.4938C60.9233 59.4325 62.3101 60.3642 63.1886 61.1951C64.1302 62.0857 64.1491 62.529 64.1491 62.5001H69.1491ZM80.0045 61.998C78.9023 63.8874 76.142 65.0428 73.2314 64.8827C71.8368 64.8059 70.7101 64.4287 70.0081 63.9407C69.3704 63.4974 69.1491 63.0361 69.1491 62.5001H64.1491C64.1491 64.964 65.4297 66.8475 67.1541 68.0462C68.8143 69.2002 70.9101 69.7624 72.9566 69.8751C76.9285 70.0937 81.9255 68.628 84.3234 64.5174L80.0045 61.998ZM73.9257 52.7439C77.7626 52.3401 79.5733 53.848 80.378 55.5039C81.3023 57.4057 81.1562 60.0236 80.0045 61.998L84.3234 64.5174C86.2386 61.2342 86.5925 56.8521 84.8751 53.3183C83.0381 49.5386 79.0653 47.1753 73.4022 47.7714L73.9257 52.7439ZM67.164 47.2577C65.6407 49.24 65.641 49.2403 65.6413 49.2405C65.6415 49.2406 65.6418 49.2409 65.6421 49.2411C65.6426 49.2415 65.6432 49.2419 65.6438 49.2424C65.6451 49.2434 65.6466 49.2446 65.6484 49.246C65.6521 49.2487 65.6567 49.2523 65.6624 49.2566C65.6737 49.2652 65.689 49.2768 65.7081 49.2912C65.7465 49.3201 65.8002 49.3602 65.8679 49.41C66.003 49.5095 66.1946 49.648 66.4303 49.8121C66.8986 50.1381 67.5556 50.5749 68.2998 51.0082C69.035 51.4363 69.9086 51.8924 70.8035 52.2297C71.6423 52.5458 72.7734 52.8652 73.9257 52.7439L73.4022 47.7714C73.4129 47.7703 73.1608 47.7748 72.5668 47.5509C72.029 47.3482 71.4203 47.0393 70.8158 46.6874C70.2204 46.3407 69.6805 45.9824 69.2868 45.7084C69.0914 45.5724 68.9357 45.4597 68.8313 45.3829C68.7792 45.3445 68.7402 45.3153 68.7156 45.2968C68.7033 45.2876 68.6947 45.281 68.6899 45.2774C68.6875 45.2755 68.686 45.2744 68.6856 45.2741C68.6854 45.2739 68.6854 45.2739 68.6856 45.2741C68.6858 45.2742 68.686 45.2744 68.6862 45.2746C68.6864 45.2747 68.6866 45.2749 68.6867 45.2749C68.6869 45.2751 68.6872 45.2753 67.164 47.2577ZM69.5206 38.9134L65.0562 45.9134L69.2718 48.602L73.7362 41.602L69.5206 38.9134ZM84.8065 33.6553C82.5761 36.0876 79.4581 37.1651 76.6809 37.5945C75.3146 37.8057 74.0972 37.8491 73.2253 37.8392C72.7913 37.8343 72.4483 37.8162 72.2217 37.8003C72.1085 37.7924 72.0248 37.785 71.9738 37.7802C71.9483 37.7777 71.931 37.7759 71.9223 37.775C71.918 37.7745 71.9158 37.7743 71.9158 37.7743C71.9159 37.7743 71.9164 37.7743 71.9176 37.7745C71.9181 37.7745 71.9188 37.7746 71.9197 37.7747C71.9201 37.7748 71.9208 37.7749 71.921 37.7749C71.9218 37.775 71.9226 37.7751 71.6284 40.2577C71.3342 42.7403 71.335 42.7404 71.336 42.7405C71.3363 42.7406 71.3373 42.7407 71.338 42.7408C71.3394 42.7409 71.341 42.7411 71.3427 42.7413C71.3461 42.7417 71.3501 42.7422 71.3547 42.7427C71.3639 42.7437 71.3754 42.745 71.3892 42.7465C71.4168 42.7494 71.4534 42.7532 71.4987 42.7575C71.5894 42.7662 71.7149 42.7771 71.8719 42.7881C72.1856 42.8101 72.6269 42.8327 73.1686 42.8389C74.2482 42.8511 75.748 42.7981 77.4449 42.5358C80.7942 42.018 85.1865 40.639 88.4917 37.0344L84.8065 33.6553ZM82.6183 14.8214C87.932 18.9367 88.9455 27.8287 84.6148 33.8918L88.6834 36.7979C94.3527 28.861 93.4077 16.8533 85.6799 10.8683L82.6183 14.8214ZM59.29 18.6358C60.6439 16.3904 63.4802 13.0027 67.3931 11.4052C71.0702 9.90401 76.1327 9.79837 82.6183 14.8214L85.6799 10.8683C77.9482 4.88025 71.018 4.52464 65.5032 6.77617C60.2241 8.93146 56.6691 13.2993 55.0082 16.0539L59.29 18.6358ZM60.164 33.7947C61.8178 31.9199 61.8186 31.9206 61.8194 31.9213C61.8196 31.9215 61.8203 31.9221 61.8208 31.9225C61.8216 31.9233 61.8224 31.924 61.823 31.9245C61.8243 31.9256 61.825 31.9263 61.8253 31.9266C61.8258 31.927 61.8245 31.9258 61.8212 31.9229C61.8148 31.917 61.801 31.9044 61.7806 31.8853C61.7396 31.8469 61.6722 31.7824 61.5834 31.6932C61.4055 31.5145 61.1447 31.2394 60.8415 30.8796C60.2298 30.1534 59.4762 29.1179 58.8753 27.8647C57.6996 25.4125 57.1252 22.226 59.29 18.6358L55.0082 16.0539C51.745 21.4658 52.678 26.5042 54.3667 30.0264C55.1981 31.7604 56.216 33.1495 57.0176 34.101C57.4212 34.5801 57.7775 34.9572 58.0401 35.2209C58.1716 35.353 58.2803 35.4573 58.3603 35.5324C58.4004 35.57 58.4334 35.6003 58.4586 35.6232C58.4711 35.6346 58.4818 35.6442 58.4904 35.652C58.4947 35.6558 58.4985 35.6592 58.5018 35.6621C58.5035 35.6636 58.505 35.6649 58.5064 35.6662C58.5071 35.6668 58.508 35.6676 58.5083 35.6679C58.5092 35.6687 58.5101 35.6695 60.164 33.7947ZM57.1413 41.7874L62.1413 35.3244L58.1866 32.2649L53.1866 38.728L57.1413 41.7874ZM52.7363 41.654C53.0862 41.8822 53.4311 42.1071 53.7772 42.3378L56.5507 38.1776C56.1802 37.9306 55.8144 37.692 55.4676 37.4659L52.7363 41.654ZM46.6726 34.4653C46.8355 36.4197 47.8969 37.8611 49.0223 38.9239C50.1094 39.9506 51.5082 40.853 52.7363 41.654L55.4677 37.4659C54.1278 36.5921 53.1492 35.9441 52.4552 35.2887C51.7995 34.6694 51.6759 34.2971 51.6553 34.0501L46.6726 34.4653ZM34.4317 31.0254C36.8782 28.579 39.7777 28.3988 42.2278 29.3883C44.8562 30.4498 46.5214 32.6507 46.6726 34.4653L51.6553 34.0501C51.3065 29.8647 47.9717 26.3156 44.1001 24.7521C40.0502 23.1165 34.9497 23.4364 30.8962 27.4899L34.4317 31.0254ZM40.9183 42.3715C38.2219 43.2141 35.2181 41.874 33.5214 39.2995C31.9178 36.8663 31.749 33.7081 34.4317 31.0254L30.8962 27.4899C26.2988 32.0873 26.63 37.9291 29.3465 42.0509C31.9698 46.0314 37.106 48.8013 42.4096 47.1439L40.9183 42.3715ZM48.664 48.7577C50.6936 47.2981 50.6932 47.2975 50.6928 47.2969C50.6926 47.2967 50.6922 47.2961 50.6919 47.2957C50.6913 47.2948 50.6906 47.2939 50.6898 47.2928C50.6884 47.2908 50.6866 47.2884 50.6847 47.2858C50.6808 47.2804 50.676 47.2738 50.6704 47.2661C50.659 47.2506 50.6441 47.2303 50.6256 47.2056C50.5888 47.1563 50.538 47.0892 50.4741 47.0071C50.3466 46.8433 50.1657 46.6181 49.939 46.3546C49.4908 45.8334 48.8393 45.134 48.047 44.4595C47.2675 43.7959 46.264 43.0807 45.1067 42.6177C43.9335 42.1483 42.4652 41.8881 40.9183 42.3715L42.4096 47.1439C42.5461 47.1013 42.7945 47.078 43.2494 47.26C43.7202 47.4483 44.2563 47.7989 44.8059 48.2668C45.3427 48.7238 45.8101 49.2217 46.1483 49.6149C46.3148 49.8086 46.4441 49.9698 46.5284 50.0782C46.5705 50.1323 46.601 50.1726 46.619 50.1968C46.628 50.2089 46.6339 50.2169 46.6365 50.2204C46.6378 50.2222 46.6383 50.2228 46.6379 50.2223C46.6377 50.2221 46.6373 50.2216 46.6367 50.2207C46.6364 50.2203 46.6361 50.2198 46.6357 50.2193C46.6355 50.219 46.6351 50.2185 46.635 50.2184C46.6347 50.2179 46.6343 50.2174 48.664 48.7577ZM33.5891 71.8456L50.6247 50.3086L46.7032 47.2068L29.6676 68.7438L33.5891 71.8456ZM28.0736 70.6927C28.8381 71.272 29.4828 71.761 30.0279 72.2153L33.2288 68.3741C32.5768 67.8308 31.8325 67.2676 31.0928 66.7072L28.0736 70.6927ZM15.6324 47.6526C14.8856 60.7765 23.1964 66.998 28.0736 70.6927L31.0928 66.7072C26.2525 63.0404 20.037 58.2576 20.6244 47.9367L15.6324 47.6526ZM18.7351 42.394C18.1215 43.1173 17.4305 43.9292 16.8938 44.6807C16.6222 45.061 16.3462 45.4857 16.1256 45.929C15.9182 46.3457 15.6725 46.9493 15.6324 47.6526L20.6244 47.9367C20.6094 48.2002 20.5317 48.2978 20.6021 48.1563C20.6593 48.0412 20.7707 47.8553 20.9627 47.5866C21.353 47.04 21.8936 46.3999 22.5481 45.6283L18.7351 42.394ZM21.2243 39.4806C21.1214 39.12 21.2246 38.9264 21.1763 39.0674C21.133 39.1939 21.02 39.4334 20.7804 39.8019C20.2947 40.5489 19.5725 41.4067 18.7351 42.394L22.5481 45.6283C23.3258 44.7115 24.2779 43.5953 24.9723 42.5273C25.3228 41.9882 25.6763 41.3599 25.9067 40.687C26.1322 40.0284 26.3163 39.1036 26.0325 38.1087L21.2243 39.4806ZM17.3855 33.1175C17.5389 32.8105 17.5671 32.9224 17.3233 33.0478C17.0293 33.1991 16.7662 33.1561 16.7116 33.1404C16.7095 33.1397 16.8625 33.1912 17.1688 33.4365C17.4595 33.6693 17.7979 34.0038 18.1675 34.4356C18.9081 35.3012 19.6365 36.3959 20.22 37.4166C20.8331 38.4891 21.1616 39.2607 21.2243 39.4806L26.0325 38.1088C25.7974 37.2849 25.2176 36.084 24.5607 34.935C23.8742 33.7342 22.9708 32.3586 21.9665 31.1849C21.0499 30.1137 19.7132 28.8023 18.0974 28.3362C17.1817 28.0721 16.0914 28.0585 15.0353 28.6021C14.0293 29.1198 13.3604 29.9867 12.9127 30.8826L17.3855 33.1175ZM25.7414 77.5727C19.4455 72.3716 15.0152 66.0435 13.2964 58.7316C11.5824 51.4403 12.4997 42.8958 17.3855 33.1175L12.9127 30.8826C7.6013 41.5128 6.40196 51.2522 8.42904 59.8757C10.4513 68.4786 15.6195 75.6963 22.5569 81.4274L25.7414 77.5727ZM36.4437 85.6016C32.4634 86.7723 29.9613 86.4417 28.6112 85.5801C27.4224 84.8215 26.4158 83.1663 26.6438 79.6624L21.6544 79.3377C21.3617 83.8339 22.6051 87.6787 25.9215 89.795C29.0765 91.8084 33.3349 91.7278 37.8545 90.3985L36.4437 85.6016ZM88.6148 76.047C84.3106 82.0728 76.3852 86.2235 66.959 87.9703C57.5763 89.7091 47.0657 88.9893 38.0134 85.6542L36.2848 90.3459C46.2325 94.0109 57.6591 94.7789 67.8701 92.8866C78.0374 91.0024 87.362 86.4031 92.6835 78.9532L88.6148 76.047ZM77.8681 75.3944C77.8424 75.4022 78.0468 75.3528 78.6012 75.338C79.0979 75.3247 79.7328 75.3417 80.4621 75.3945C81.9232 75.5002 83.6402 75.7403 85.1929 76.0981C86.8202 76.4732 87.983 76.9149 88.5441 77.292C88.8336 77.4865 88.6579 77.4625 88.5329 77.1128C88.3421 76.5787 88.5479 76.1407 88.6148 76.047L92.6835 78.9532C93.3754 77.9844 93.7045 76.7266 93.2415 75.4306C92.8443 74.3189 92.0008 73.5909 91.3331 73.1421C89.9797 72.2325 88.0701 71.6302 86.3158 71.2258C84.4869 70.8043 82.5131 70.5298 80.8229 70.4075C79.9766 70.3463 79.1707 70.3209 78.4675 70.3398C77.8221 70.357 77.0677 70.4142 76.4301 70.6057L77.8681 75.3944ZM77.0355 77.8471C77.372 76.9889 77.6285 76.3462 77.9154 75.8289C78.2007 75.3148 78.3861 75.1734 78.4353 75.1438L75.8629 70.8563C74.7373 71.5316 74.024 72.5368 73.5432 73.4033C73.0642 74.2667 72.6876 75.2387 72.3805 76.0219L77.0355 77.8471ZM72.7403 83.7392C74.1369 83.0457 75.0364 81.9213 75.6487 80.8853C76.2484 79.8705 76.6885 78.7319 77.0355 77.8471L72.3805 76.0219C72.0015 76.9885 71.7025 77.7351 71.3441 78.3415C70.9984 78.9266 70.7211 79.1593 70.5165 79.2609L72.7403 83.7392ZM42.3422 80.9384C44.5716 82.2761 48.8651 83.5057 53.9581 84.1778C59.1532 84.8633 65.5088 85.0127 72.024 83.9686L71.2328 79.0316C65.2687 79.9874 59.4063 79.8533 54.6122 79.2207C49.7159 78.5746 46.249 77.4516 44.9146 76.651L42.3422 80.9384ZM75.6491 24.8448C75.6491 26.5017 74.306 27.8448 72.6491 27.8448V32.8448C77.0674 32.8448 80.6491 29.2631 80.6491 24.8448H75.6491ZM72.6491 21.8448C74.306 21.8448 75.6491 23.188 75.6491 24.8448H80.6491C80.6491 20.4265 77.0674 16.8448 72.6491 16.8448V21.8448ZM69.6491 24.8448C69.6491 23.188 70.9923 21.8448 72.6491 21.8448V16.8448C68.2308 16.8448 64.6491 20.4265 64.6491 24.8448H69.6491ZM72.6491 27.8448C70.9923 27.8448 69.6491 26.5017 69.6491 24.8448H64.6491C64.6491 29.2631 68.2308 32.8448 72.6491 32.8448V27.8448Z" fill="black"/>
</svg>
