<svg width="100" height="100" viewBox="0 0 100 100" fill="none" xmlns="http://www.w3.org/2000/svg">
<path fill-rule="evenodd" clip-rule="evenodd" d="M33.5 24L4 37.81L18 89.997H81L95 37.8125L64.5 23.5L60 16.5V11H53V23H47V16.5H39L33.5 24ZM75.5 83.5L87 41.5L60 28.5V34.5H39V28.5L12 41.5L23.5 83.5L23.5 65V42.5H36.5V46.5L43 42.5H56L62.5 46.5V42.5H75.5V65V83.5ZM45.5 58.5H54.5V67.5H45.5V58.5Z" fill="url(#paint0_linear_6_644)"/>
<path d="M75.5 83.5L87 41.5L60 28.5V34.5H39V28.5L12 41.5L23.5 83.5M75.5 83.5V65M75.5 83.5H23.5M23.5 83.5L23.5 65M23.5 65V42.5H36.5V46.5M23.5 65H36.5V79.5M36.5 46.5L43 42.5H56L62.5 46.5M36.5 46.5V59M62.5 46.5V42.5H75.5V65M62.5 46.5V59M75.5 65H62.5V79.5M54.5 67.5V58.5H45.5V67.5M54.5 67.5H45.5M54.5 67.5H62.5M45.5 67.5H36.5M50 67.5V76.5M4 37.81L33.5 24L39 16.5H47V23H53V11H60V16.5L64.5 23.5L95 37.8125L81 89.997H18L4 37.81Z" stroke="#0F7BF4" stroke-width="5"/>
<defs>
<linearGradient id="paint0_linear_6_644" x1="49.5" y1="11" x2="49.5" y2="89.997" gradientUnits="userSpaceOnUse">
<stop stop-color="#6DDFFF"/>
<stop offset="1" stop-color="#98F6FF"/>
</linearGradient>
</defs>
</svg>
