<svg width="100" height="100" viewBox="0 0 100 100" fill="none" xmlns="http://www.w3.org/2000/svg">
<path d="M93.5 10.1544C74 2.65443 52 7.65443 51.5 34.6544C50.5 32.6544 46.431 28.2928 45.5 27.6544C28 15.6544 13.5 38.1544 15.5 36.6544C18.5 36.6544 21.5 35.1544 25.5 36.6544C29.1995 38.0417 38 39.1544 44.5 38.1544C47.5 37.6929 47.5 39.8294 47 40.6544C43.6667 46.1544 38.5 52.1544 31.5 54.1544C21.7772 56.9324 6 57.6545 6 74.6545C6 99.1545 37.5 93.6545 41 92.6545C47.2684 90.8635 59.5 88.1544 59.5 63.1544C59.5 53.6544 59 44.9878 57 40.6544V37.6544C81.5 23.1544 78 23.6544 93.5 10.1544Z" fill="url(#paint0_linear_3_513)" stroke="black" stroke-width="5"/>
<defs>
<linearGradient id="paint0_linear_3_513" x1="49.75" y1="7" x2="49.75" y2="93.8796" gradientUnits="userSpaceOnUse">
<stop offset="0.411458" stop-color="#61CD42"/>
<stop offset="0.737847" stop-color="#EBF5AC" stop-opacity="0.83"/>
</linearGradient>
</defs>
</svg>
