<svg width="100" height="100" viewBox="0 0 100 100" fill="none" xmlns="http://www.w3.org/2000/svg">
<path d="M40.3435 49.6282C29.8934 45.1839 24.8383 32.5839 24 24.2007C24 24.2007 26.4034 27.1481 29.5 28.7007C29.5 13.2007 70.2808 17.1687 74.5 24.2007C78.386 30.6774 75.1409 36.3151 72.1002 42.2007C72.5 49.7007 68.8523 48.6774 68.5 52.2007C68.5 54.534 68.3889 56.7007 68 58.5525C67.2222 62.2562 65.3333 67.2007 61 67.2007C60 74.6569 53.5 75.2007 53.5 75.2007V82.2007C43.5 84.2007 38 75.2007 38 75.2007C38 75.2007 34 66.7007 41 64.7007C41 59.9376 46.9998 59.2532 49.9066 59.1953C39.7655 59.0926 36.4661 57.4633 35.5 50.7007C35.5 47.9993 36.6814 48.5393 40.3435 49.6282Z" fill="url(#paint0_linear_6_775)"/>
<path d="M41 32.2193C39 26.2007 65 28.8018 65 30.7007C65 33.3608 56 32.2007 51.5 32.2007C42.8248 32.2007 37.3589 32.6409 29.5 28.7007M47 51.2007C32 50.2007 25 34.2007 24 24.2007C24 24.2007 26.4034 27.1481 29.5 28.7007M47 51.2007C38 49.7007 35.5 46.7709 35.5 50.7007C36.5 57.7007 40 59.2007 51 59.2007C49 59.1391 41 59.2007 41 64.7007C34 66.7007 38 75.2007 38 75.2007C38 75.2007 43.5 84.2007 53.5 82.2007V75.2007C53.5 75.2007 60 74.6569 61 67.2007M47 51.2007C51 51.8673 59 52.034 62.5 50.7007M29.5 28.7007C29.5 13.2007 70.2808 17.1687 74.5 24.2007C78.386 30.6774 75.1409 36.3151 72.1002 42.2007C72.5 49.7007 68.8523 48.6774 68.5 52.2007C68.5 54.534 68.3889 56.7007 68 58.5525M61 67.2007C53 70.0007 49.5 69.2007 47 67.2007M61 67.2007C65.3333 67.2007 67.2222 62.2562 68 58.5525M68 58.5525C58.8 60.671 61 58.2007 55 59.2007M41 40.7007C44 43.7007 71.673 46.7007 75.5397 34.7007" stroke="black" stroke-width="5"/>
<defs>
<linearGradient id="paint0_linear_6_775" x1="50.1324" y1="17.7503" x2="50.1324" y2="82.6385" gradientUnits="userSpaceOnUse">
<stop offset="0.418095" stop-color="#AD9A5A"/>
<stop offset="0.629625" stop-color="#DAD5BC" stop-opacity="0.72"/>
</linearGradient>
</defs>
</svg>
