<svg width="100" height="100" viewBox="0 0 100 100" fill="none" xmlns="http://www.w3.org/2000/svg">
<path d="M45.1398 12.5094C41.6398 13.3844 30.256 26.5388 11.6398 50.5094C8.11007 55.0544 9.13981 59.5959 9.13981 63.5094C9.4373 69.2693 10.7255 74.9286 13.6398 78.5094C20.7711 87.2717 48.2105 89.5094 52.2105 89.5094C57.5994 89.5094 59.2105 88.4446 62.6398 85.5094C67.4896 81.3585 90.6398 44.5094 90.6398 34.0094C90.6398 23.5511 89.0287 16.423 83.6398 12.5094C79.3287 9.37856 47.1398 12.0094 45.1398 12.5094Z" fill="url(#paint0_linear_9_827)"/>
<path d="M11.6398 50.5094C30.256 26.5388 41.6398 13.3844 45.1398 12.5094C47.1398 12.0094 79.3287 9.37856 83.6398 12.5094C89.0287 16.423 90.6398 23.5511 90.6398 34.0094C90.6398 44.5094 67.4896 81.3585 62.6398 85.5094C59.2105 88.4446 57.5994 89.5094 52.2105 89.5094C48.2105 89.5094 20.7711 87.2717 13.6398 78.5094C10.7255 74.9286 9.4373 69.2693 9.13981 63.5094C9.13981 59.5959 8.11007 55.0544 11.6398 50.5094ZM43.3923 25.4464H73.2761C57.5994 37.3502 26.2459 61.1577 26.2459 61.1577C23.1398 63.5094 23.3065 68.6913 27.2257 69.474C29.1398 69.8563 43.8822 72.0831 49.761 72.8984C50.5775 74.366 52.2105 77.1055 52.2105 76.3228C52.2105 75.5401 46.3317 42.0791 43.3923 25.4464Z" stroke="black" stroke-width="5"/>
<defs>
<linearGradient id="paint0_linear_9_827" x1="49.1059" y1="11" x2="49.1398" y2="90.5094" gradientUnits="userSpaceOnUse">
<stop stop-color="#D6D8D6" stop-opacity="0.56"/>
<stop offset="0.936442" stop-color="#7D7E7D"/>
</linearGradient>
</defs>
</svg>
