<svg width="100" height="100" viewBox="0 0 100 100" fill="none" xmlns="http://www.w3.org/2000/svg">
<path d="M64.1595 42C59.3262 44.1667 51.6595 51.4 59.6595 63C56.9928 66.3333 51.5595 71.4 51.1595 65C50.7595 58.6 45.3262 55.3333 42.6595 54.5L41.1595 49C41.9928 48.6667 45.2595 49.1 51.6595 53.5C53.1595 49.5 50.6595 49 49.1595 45C51.1595 43.8 53.9928 47.1667 55.1595 49C56.1595 50 58.0595 50 57.6595 42C57.1595 32 48.1595 29.5 38.1595 29.5C32.6595 25 32.1595 21 26.1595 21C20.1595 21 16.6595 24.5 20.6595 27C18.6595 29.3333 15.8595 35.5 20.6595 39.5C15.1595 41 12.1595 43 22.1595 64C17.6595 71 14.6595 74 14.6595 74C11.6595 77.5 19.4595 78.7 26.6595 69.5C32.6595 82 64.6595 83.5 66.6595 69C72.2595 73.8 82.1595 70 86.1595 60C82.6595 58.5 74.3595 55.9 69.1595 57.5C69.9595 55.5 66.1595 46.3333 64.1595 42Z" fill="url(#paint0_linear_6_753)"/>
<path d="M21.1595 27C29.6595 24.5 28.1595 39 26.1595 40.5M23.1595 48.5C23.1595 50 28.1595 61.5 28.1595 61.5M28.1595 61.5C30.6595 67.5 22.6595 73.7805 19.1595 75.7805M28.1595 61.5C32.1595 61.5 34.1595 55.5 38.1595 54.5M52.1595 32.5C36.1595 28 37.1595 43 34.6595 44.5M59.6595 63C51.6595 51.4 59.3262 44.1667 64.1595 42C66.1595 46.3333 69.9595 55.5 69.1595 57.5C74.3595 55.9 82.6595 58.5 86.1595 60C82.1595 70 72.2595 73.8 66.6595 69C64.6595 83.5 32.6595 82 26.6595 69.5C19.4595 78.7 11.6595 77.5 14.6595 74C14.6595 74 17.6595 71 22.1595 64C12.1595 43 15.1595 41 20.6595 39.5C15.8595 35.5 18.6595 29.3333 20.6595 27C16.6595 24.5 20.1595 21 26.1595 21C32.1595 21 32.6595 25 38.1595 29.5C48.1595 29.5 57.1595 32 57.6595 42C58.0595 50 56.1595 50 55.1595 49C53.9928 47.1667 51.1595 43.8 49.1595 45C50.6595 49 53.1595 49.5 51.6595 53.5C45.2595 49.1 41.9928 48.6667 41.1595 49L42.6595 54.5C45.3262 55.3333 50.7595 58.6 51.1595 65C51.5595 71.4 56.9928 66.3333 59.6595 63Z" stroke="black" stroke-width="5"/>
<defs>
<linearGradient id="paint0_linear_6_753" x1="50.1204" y1="21" x2="50.1204" y2="79.625" gradientUnits="userSpaceOnUse">
<stop offset="0.524305" stop-color="#A340A0"/>
<stop offset="0.862847" stop-color="#ECACEC" stop-opacity="0.72"/>
</linearGradient>
</defs>
</svg>
