<svg width="100" height="100" viewBox="0 0 100 100" fill="none" xmlns="http://www.w3.org/2000/svg">
<path d="M73 24.5C71.1667 24.1667 65 24.5 62.5 27C66.9276 26.508 82.9723 30.8565 84.9161 43.3792C84.9479 43.584 84.9759 43.7909 85 44C74.6919 46.4543 82.6957 65.7749 92.9265 73.1034C93.1169 73.2398 93.3081 73.3721 93.5 73.5C82.3 71.1 81.8333 80.1667 83 85H69.5H52H39H17.5C7.74577 76.5044 11.9968 60.8749 17.5 53.3476C19.6899 50.0033 12 42.5 7 38.9485C12.6 37.3072 16.5 38 20.5 42.5C20.5 42.5 15.2086 35.1474 11 31.5C15 30.3 18.6667 32.6667 20 34C20.3333 30.3333 19.5 21.4 13.5 15C16.9956 15 19.8304 15.5612 22.1627 16.5C25.7751 15.8383 34.2 16.306 39 22.5C45.7105 16.7066 57.5 17 57.5 17C52 20.5 45 24.5 45 27C53.5 17 67 19.5 73 24.5Z" fill="url(#paint0_linear_6_787)"/>
<path d="M73 24.5C71.1667 24.1667 65 24.5 62.5 27C66.9276 26.508 82.9723 30.8565 84.9161 43.3792C84.9479 43.584 84.9759 43.7909 85 44C74.6919 46.4543 82.6957 65.7749 92.9265 73.1034C93.1169 73.2398 93.3081 73.3721 93.5 73.5C82.3 71.1 81.8333 80.1667 83 85H69.5H52H39H17.5C7.74577 76.5044 11.9968 60.8749 17.5 53.3476C19.6899 50.0033 12 42.5 7 38.9485C12.6 37.3072 16.5 38 20.5 42.5C20.5 42.5 15.2086 35.1474 11 31.5C15 30.3 18.6667 32.6667 20 34C20.3333 30.3333 19.5 21.4 13.5 15C16.9956 15 19.8304 15.5612 22.1627 16.5C25.7751 15.8383 34.2 16.306 39 22.5C45.7105 16.7066 57.5 17 57.5 17C52 20.5 45 24.5 45 27C53.5 17 67 19.5 73 24.5Z" fill="url(#paint1_radial_6_787)"/>
<path d="M83 85C81.8333 80.1667 82.3 71.1 93.5 73.5C93.3081 73.3721 93.1169 73.2398 92.9265 73.1034M83 85C82.7221 85 77.3259 85 69.5 85M83 85C70.7482 75.4117 62.7378 65.8134 59 57.6557M84.9161 43.3792C84.9479 43.584 84.9759 43.7909 85 44C74.6919 46.4543 82.6957 65.7749 92.9265 73.1034M84.9161 43.3792C82.9723 30.8565 66.9276 26.508 62.5 27C65 24.5 71.1667 24.1667 73 24.5C67 19.5 53.5 17 45 27C45 24.5 52 20.5 57.5 17C57.5 17 45.7105 16.7066 39 22.5M84.9161 43.3792C79.3918 40.8203 72.2556 39.4276 67.5 38.9485M23 76.5C22.8371 75.6854 23.2977 68.412 27.5 61.5M27.5 61.5C27.5 73.1377 36.5 85 39 85M27.5 61.5C29.3808 58.4065 33.5 54.1394 35 53.3476M39 85C31.0765 85 23.4557 85 17.5 85C7.74577 76.5044 11.9968 60.8749 17.5 53.3476M39 85C43.317 85 47.7237 85 52 85M35 53.3476C35 71.5 51 85 52 85M35 53.3476C38.5 51.5 42.3477 50.4772 46.5 51.5M52 85C58.3647 85 64.4402 85 69.5 85M69.5 85C56.0924 77.6868 48.4144 62.7826 46.5 51.5M67.5 38.9485C63.1889 38.5141 60.5 38.5 57.5 38.9485C53.2645 39.9575 53 40 49.5 42C51.7733 42.2822 54 43.3792 57 46.5C59.2187 48.8081 59.278 52.7401 59 57.6557M67.5 38.9485C67.5 51.5 79.853 71.2069 92.9265 73.1034M46.5 51.5C50.6637 52.5256 55 55 57.5 59.5C57.5357 59.1434 58.9806 57.9996 59 57.6557M22.1627 16.5C29.8386 19.5898 31.5 28 32.5 31.5C34.5 27 36.5437 24.6206 39 22.5M22.1627 16.5C19.8304 15.5612 16.9956 15 13.5 15C19.5 21.4 20.3333 30.3333 20 34C18.6667 32.6667 15 30.3 11 31.5C15.2086 35.1474 20.5 42.5 20.5 42.5M22.1627 16.5C25.7751 15.8383 34.2 16.306 39 22.5M20.5 42.5C20.5 42.5 21.5 44 23 46.5C21.5775 47.8513 18.9927 51.3059 17.5 53.3476M20.5 42.5C16.5 38 12.6 37.3072 7 38.9485C12 42.5 19.6899 50.0033 17.5 53.3476" stroke="black" stroke-width="5"/>
<defs>
<linearGradient id="paint0_linear_6_787" x1="50.25" y1="15" x2="50.25" y2="85" gradientUnits="userSpaceOnUse">
<stop offset="0.473958" stop-color="#4575EF"/>
<stop offset="0.828125" stop-color="#7893DA" stop-opacity="0.41"/>
</linearGradient>
<radialGradient id="paint1_radial_6_787" cx="0" cy="0" r="1" gradientUnits="userSpaceOnUse" gradientTransform="translate(83.5 56.5) rotate(104.931) scale(38.8104 31.6188)">
<stop offset="0.305555" stop-color="#2D3D5C"/>
<stop offset="1" stop-opacity="0"/>
</radialGradient>
</defs>
</svg>
