<svg width="100" height="100" viewBox="0 0 100 100" fill="none" xmlns="http://www.w3.org/2000/svg">
<path fill-rule="evenodd" clip-rule="evenodd" d="M43 24.5C32.6 18.1 15.3333 27.8333 10 34V55L19 61L10 64C10 79.4794 14.1455 85.0095 17.907 90.0272C18.2764 90.5201 18.6422 91.008 19 91.5L24.5 76.5L28.5 89.5L32.5 83.5L35.5 89.5H54.5V82L64 89.5C66.324 85.9635 70.3807 78.8419 69.1817 73.5C71.7878 73.5 77.5 78 77.5 78C77.5 78 80.1817 54.5 65.5 55C66.5 53 72.5 51.5 72.5 51.5C72.5 51.5 65.5 47 62 43.5C58.7833 40.2833 53 34 53 34C53 34 88 39 84.5 61C94.5 49 93 24.5 52 9L43 24.5ZM20.5 52L31.5 57L39.5 43.5L27.5 33.5L20.5 37V52Z" fill="url(#paint0_linear_9_840)"/>
<path d="M19 61L10 55V34C15.3333 27.8333 32.6 18.1 43 24.5L52 9C93 24.5 94.5 49 84.5 61C88 39 53 34 53 34C53 34 58.7833 40.2833 62 43.5C65.5 47 72.5 51.5 72.5 51.5C72.5 51.5 66.5 53 65.5 55C80.1817 54.5 77.5 78 77.5 78C77.5 78 71.7878 73.5 69.1817 73.5M19 61L10 64C10 79.4794 14.1455 85.0095 17.907 90.0272C18.2764 90.5201 18.6422 91.008 19 91.5L24.5 76.5L28.5 89.5L32.5 83.5L35.5 89.5H54.5V82M19 61C17.3644 62.8333 15.5 69.5 17.907 76.5M54.5 82L64 89.5C66.324 85.9635 70.3807 78.8419 69.1817 73.5M54.5 82L36.5 64C42 69.5 43 76.5 43 83.5M69.1817 73.5C68.4029 70.0306 66.0399 66.89 61 65M31.5 57L20.5 52V37L27.5 33.5L39.5 43.5L31.5 57ZM31.5 57C29.8333 59.6667 27.2 66.4 30 72M54.5 20C65.5 23 74.5 28.5 80 37" stroke="black" stroke-width="5"/>
<defs>
<linearGradient id="paint0_linear_9_840" x1="49.8258" y1="9" x2="49.8258" y2="91.5" gradientUnits="userSpaceOnUse">
<stop offset="0.572917" stop-color="#7F9EB5"/>
<stop offset="0.713542" stop-color="#C6D3E3"/>
</linearGradient>
</defs>
</svg>
