<svg width="100" height="100" viewBox="0 0 100 100" fill="none" xmlns="http://www.w3.org/2000/svg">
<path d="M28.5981 82.5C20.0981 78 1.09811 60.52 12.5981 40.52L36.5981 29C33.3981 27.8 32.0981 24 30.5981 20C36.5981 17 35.5981 17 42.0981 17C44.5981 21.5 48.4314 23.45 52.5981 24C61.4214 21.1295 72.352 20 77.0981 20C93.0981 30.5 91 47 89.5 56C89.5 56 69.5981 62 63.5981 64C54.9935 66.8682 36.0981 76.5 28.5981 82.5Z" fill="#66442B" style="mix-blend-mode:darken"/>
<path d="M28.5981 82.5C20.0981 78 1.09811 60.52 12.5981 40.52L36.5981 29C33.3981 27.8 32.0981 24 30.5981 20C36.5981 17 35.5981 17 42.0981 17C44.5981 21.5 48.4314 23.45 52.5981 24C61.4214 21.1295 72.352 20 77.0981 20C93.0981 30.5 91 47 89.5 56C89.5 56 69.5981 62 63.5981 64C54.9935 66.8682 36.0981 76.5 28.5981 82.5Z" fill="url(#paint0_radial_6_799)"/>
<path d="M28.5981 82.5C20.0981 78 1.09811 60.52 12.5981 40.52L36.5981 29C33.3981 27.8 32.0981 24 30.5981 20C36.5981 17 35.5981 17 42.0981 17C44.5981 21.5 48.4314 23.45 52.5981 24C61.4214 21.1295 72.352 20 77.0981 20C93.0981 30.5 91 47 89.5 56C89.5 56 69.5981 62 63.5981 64C54.9935 66.8682 36.0981 76.5 28.5981 82.5Z" fill="url(#paint1_radial_6_799)"/>
<path d="M28.5981 82.5C20.0981 78 1.09811 60.52 12.5981 40.52L36.5981 29C33.3981 27.8 32.0981 24 30.5981 20C36.5981 17 35.5981 17 42.0981 17C44.5981 21.5 48.4314 23.45 52.5981 24C61.4214 21.1295 72.352 20 77.0981 20C93.0981 30.5 91 47 89.5 56C89.5 56 69.5981 62 63.5981 64C54.9935 66.8682 36.0981 76.5 28.5981 82.5Z" fill="url(#paint2_linear_6_799)"/>
<path d="M12.5981 40.52C1.09811 60.52 20.0981 78 28.5981 82.5M12.5981 40.52L36.5981 29C33.3981 27.8 32.0981 24 30.5981 20C36.5981 17 35.5981 17 42.0981 17C44.5981 21.5 48.4315 23.45 52.5981 24M12.5981 40.52C32.0981 45.5 40 73.3785 28.5981 82.5M28.5981 82.5C36.0981 76.5 54.9935 66.8682 63.5981 64C69.5981 62 89.5 56 89.5 56C91 47 93.0981 30.5 77.0981 20C72.352 20 61.4214 21.1295 52.5981 24M45.5981 25.5C45.5981 25.5 49.3375 25.0608 52.5981 24" stroke="black" stroke-width="5"/>
<defs>
<radialGradient id="paint0_radial_6_799" cx="0" cy="0" r="1" gradientUnits="userSpaceOnUse" gradientTransform="translate(60 39) rotate(125.134) scale(49.5227 63.279)">
<stop offset="0.273715" stop-opacity="0"/>
<stop offset="0.826194" stop-color="#53341D"/>
</radialGradient>
<radialGradient id="paint1_radial_6_799" cx="0" cy="0" r="1" gradientUnits="userSpaceOnUse" gradientTransform="translate(22 61) rotate(65.556) scale(24.1661 10.5096)">
<stop stop-color="#ECCDA1"/>
<stop offset="0.586805" stop-color="#ECCDA1"/>
<stop offset="0.994901" stop-color="#ECCDA1" stop-opacity="0"/>
</radialGradient>
<linearGradient id="paint2_linear_6_799" x1="70.5" y1="34.5" x2="51.5" y2="68.5" gradientUnits="userSpaceOnUse">
<stop offset="0.0472181" stop-color="#845944"/>
<stop offset="1" stop-opacity="0"/>
</linearGradient>
</defs>
</svg>
